<?xml version="1.0" encoding="UTF-8"?>
<svg version="1.1" xmlns="http://www.w3.org/2000/svg" width="1012" height="1012">
<path d="M0 0 C1.225979 -0.00067474 2.45195801 -0.00134949 3.71508789 -0.00204468 C22.87767882 0.01468616 41.62910435 0.5921169 60.625 3.25 C61.91116211 3.42692383 63.19732422 3.60384766 64.52246094 3.78613281 C110.32768551 10.19965635 154.89708373 23.22682824 196.625 43.25 C197.6046875 43.71599609 198.584375 44.18199219 199.59375 44.66210938 C222.01353172 55.38642328 243.47080522 67.68630569 263.625 82.25 C264.38506348 82.7951123 265.14512695 83.34022461 265.92822266 83.90185547 C275.14266393 90.5258322 284.14353096 97.29291172 292.7109375 104.73828125 C295.50612995 107.14754231 298.36280549 109.4524438 301.25 111.75 C306.19531123 115.76671567 310.63904665 120.16383502 315.0859375 124.7109375 C317.14053073 126.76553073 319.20537201 128.64780869 321.4375 130.5 C328.05656768 136.15208454 333.76131369 142.83714139 339.625 149.25 C340.47835937 150.17683594 341.33171875 151.10367188 342.2109375 152.05859375 C415.97315188 232.93821478 456.61481523 342.02553315 457.31640625 479.08203125 C455.30300354 517.16129088 448.881483 554.80683106 437.625 591.25 C437.33044922 592.21454102 437.03589844 593.17908203 436.73242188 594.17285156 C418.22622502 654.10814786 386.34050166 711.31024626 343.9609375 757.66796875 C342.71624103 759.04379545 341.47669069 760.42504259 340.27734375 761.84057617 C334.75848353 768.32024794 328.75319769 774.30789648 322.73828125 780.32202148 C320.88771033 782.17477468 319.04529924 784.03538706 317.203125 785.89648438 C310.31501441 792.81688226 303.29385949 799.19483 295.625 805.25 C294.53464643 806.17275772 293.45003122 807.10240478 292.375 808.04296875 C230.17118524 862.20623359 148.89917983 896.37140754 67.6875 908.0625 C66.66426636 908.21155289 66.66426636 908.21155289 65.62036133 908.36361694 C44.56496849 911.38550293 23.51167082 912.63976709 2.25 912.5625 C0.62840973 912.55926727 0.62840973 912.55926727 -1.02593994 912.55596924 C-85.18380066 912.28880143 -168.67462133 889.21346616 -300.79296875 798.5859375 C-302.17492852 797.3356925 -303.56248103 796.09083893 -304.9831543 794.88476562 C-311.30078339 789.49700763 -317.15278687 783.65831901 -323.01977539 777.79052734 C-324.80010252 776.01238228 -326.58828377 774.24240439 -328.37695312 772.47265625 C-334.44429023 766.43474872 -340.16258191 760.33058404 -345.49047852 753.62255859 C-347.08720847 751.61232129 -348.72016739 749.66710694 -350.421875 747.74609375 C-358.41946435 738.71370954 -365.50632012 729.16169028 -372.375 719.25 C-372.93977051 718.43644043 -373.50454102 717.62288086 -374.08642578 716.78466797 C-383.58048425 703.02458041 -392.1874982 688.82145406 -400.375 674.25 C-401.0548999 673.04923828 -401.0548999 673.04923828 -401.74853516 671.82421875 C-414.44674436 649.22794329 -424.169069 624.79297884 -432.375 600.25 C-432.71337891 599.25210449 -433.05175781 598.25420898 -433.40039062 597.22607422 C-444.98306384 562.72720386 -451.722837 526.51308979 -454.375 490.25 C-454.43284668 489.46206055 -454.49069336 488.67412109 -454.55029297 487.86230469 C-458.44271981 431.79749795 -451.98822181 374.93589972 -435.375 321.25 C-435.07513184 320.27482422 -434.77526367 319.29964844 -434.46630859 318.29492188 C-418.10849899 265.73540248 -391.96449678 216.11145149 -357.375 173.25 C-356.59382813 172.2703125 -355.81265625 171.290625 -355.0078125 170.28125 C-352.82555042 167.57866209 -350.60992192 164.90917828 -348.375 162.25 C-347.91770508 161.7024707 -347.46041016 161.15494141 -346.98925781 160.59082031 C-341.12718283 153.58492582 -335.15398781 146.86241181 -328.60546875 140.48046875 C-326.58018623 138.45518623 -324.71968708 136.37618467 -322.875 134.1875 C-319.60561971 130.37954431 -315.99680009 127.10346573 -312.23046875 123.79296875 C-310.15760475 121.94695717 -308.12603743 120.08498728 -306.11328125 118.17578125 C-298.78893869 111.23261193 -291.2696739 104.78165236 -283.23632812 98.67431641 C-281.2950794 97.18884355 -279.37325882 95.68061588 -277.453125 94.16796875 C-252.26587052 74.43855415 -224.90590247 58.59680871 -196.375 44.25 C-195.20686768 43.65493652 -195.20686768 43.65493652 -194.01513672 43.04785156 C-134.57495506 12.89600899 -66.18814898 0.03272358 0 0 Z " fill="#51C2EB" transform="translate(505.375,45.75)"/>
<path d="M0 0 C2.63797415 0.66505211 5.28264 1.29340476 7.93115234 1.91503906 C20.91911164 5.00313622 33.61746074 8.54647813 45.71240234 14.30175781 C48.41552079 15.56759061 51.1481172 16.73532833 53.90014648 17.88989258 C79.16545571 28.60440113 102.9483558 42.75953309 124.04443359 60.35498047 C125.63721111 61.68246098 127.24655161 62.98790635 128.85693359 64.29394531 C143.36664556 76.23552922 157.2123616 89.69548087 168.60693359 104.65722656 C169.6760675 105.98994957 170.74793404 107.32048273 171.82177734 108.64941406 C202.97766947 147.49345803 224.14204294 194.47455072 232.91943359 243.46972656 C233.06687012 244.29053711 233.21430664 245.11134766 233.36621094 245.95703125 C236.03919145 262.20800069 236.94276765 278.54857444 236.86767578 294.99658203 C236.8569089 297.78863071 236.86768227 300.58004021 236.88037109 303.37207031 C236.8945844 320.08260661 235.25472539 336.37677866 232.41943359 352.84472656 C232.20947754 354.06651611 231.99952148 355.28830566 231.78320312 356.54711914 C229.7789495 367.64533185 226.83780738 378.36104951 223.41064453 389.09619141 C222.630936 391.58074258 221.91909267 394.07798047 221.20849609 396.58300781 C219.44956899 402.46250244 217.05857704 408.03798873 214.60693359 413.65722656 C214.17251953 414.65850586 213.73810547 415.65978516 213.29052734 416.69140625 C201.35695047 443.87247602 186.4012072 468.69524035 167.60693359 491.65722656 C167.15801758 492.21055664 166.70910156 492.76388672 166.24658203 493.33398438 C154.47359917 507.76619711 141.33848195 521.2431765 126.60693359 532.65722656 C124.89721126 534.09307425 123.18893253 535.53064225 121.48193359 536.96972656 C78.51542203 571.89890192 25.34494893 593.53099328 -29.39306641 600.65722656 C-30.2602832 600.77291992 -31.1275 600.88861328 -32.02099609 601.0078125 C-67.54581278 605.53403678 -103.59302356 602.56342904 -138.39306641 594.65722656 C-139.16424805 594.48578125 -139.93542969 594.31433594 -140.72998047 594.13769531 C-201.10272784 580.58069316 -261.60015999 544.182709 -300.20947266 495.38769531 C-301.63409327 493.60628242 -303.09927713 491.8563562 -304.60791016 490.14550781 C-317.60608957 475.33061114 -328.25433368 458.08446929 -337.39306641 440.65722656 C-337.71645996 440.05668457 -338.03985352 439.45614258 -338.37304688 438.83740234 C-344.66128582 427.13697559 -349.46544192 414.86521463 -354.26147461 402.49291992 C-355.08666995 400.42503558 -355.96823551 398.37938736 -356.88208008 396.34912109 C-358.54803441 392.27858281 -359.69561068 388.25364462 -360.76806641 383.99707031 C-360.97798721 383.17801712 -361.18790802 382.35896393 -361.40419006 381.51509094 C-362.07567566 378.87703495 -362.73588518 376.23638021 -363.39306641 373.59472656 C-363.73022171 372.24755554 -363.73022171 372.24755554 -364.07418823 370.87316895 C-367.39255436 357.5472802 -370.20459983 344.36123774 -371.39306641 330.65722656 C-371.48225342 329.82707031 -371.57144043 328.99691406 -371.66333008 328.14160156 C-372.56532644 319.07227891 -372.57917948 310.01119004 -372.57836914 300.90625 C-372.58054 298.19026632 -372.59871267 295.47470048 -372.61767578 292.75878906 C-372.65377216 281.31571986 -371.96331639 270.10848685 -370.63232422 258.74427795 C-370.40711441 256.77976758 -370.21064904 254.8120229 -370.01611328 252.84423828 C-366.35956835 216.05456683 -351.59408621 178.55824117 -333.39306641 146.65722656 C-332.97089844 145.91601562 -332.54873047 145.17480469 -332.11376953 144.41113281 C-322.23865947 127.27447565 -310.45849115 111.48382141 -297.39306641 96.65722656 C-296.69439453 95.84769531 -295.99572266 95.03816406 -295.27587891 94.20410156 C-284.92341829 82.40620305 -273.77133859 71.31158927 -261.39306641 61.65722656 C-260.28889295 60.74370661 -259.18749218 59.8268285 -258.08837891 58.90722656 C-243.40331073 46.713914 -227.23478505 36.59735779 -210.39306641 27.65722656 C-209.78140625 27.32948242 -209.16974609 27.00173828 -208.53955078 26.6640625 C-176.43016475 9.59217668 -141.49989218 -1.12843426 -105.39306641 -5.34277344 C-104.52746094 -5.4457373 -103.66185547 -5.54870117 -102.77001953 -5.65478516 C-68.80275138 -9.53588276 -33.2413401 -8.4015894 0 0 Z " fill="#51C2EB" transform="translate(574.39306640625,204.3427734375)"/>
<path d="M0 0 C133.65 0 267.3 0 405 0 C406.98 4.95 406.98 4.95 409 10 C410.98 11.485 410.98 11.485 413 13 C413.56640625 16.03125 413.56640625 16.03125 413.5625 19.5 C413.58441406 20.6446875 413.60632813 21.789375 413.62890625 22.96875 C413 26 413 26 410.5546875 27.75 C409.71164062 28.1625 408.86859375 28.575 408 29 C407.2884375 30.2375 407.2884375 30.2375 406.5625 31.5 C405 34 405 34 401.9375 35.5 C398.34434707 37.3348015 398.40978022 38.3874382 397 42 C396.0925 42.515625 395.185 43.03125 394.25 43.5625 C390.70757739 45.6299965 389.53472934 48.51886897 387.796875 52.15234375 C387.26932617 53.24409912 386.74177734 54.33585449 386.19824219 55.46069336 C385.80282227 56.29866455 385.40740234 57.13663574 385 58 C385.85827393 57.96970703 386.71654785 57.93941406 387.60083008 57.90820312 C395.4637349 57.63611219 403.32680857 57.39171509 411.19172668 57.18528748 C414.8445678 57.08910988 418.49663161 56.98601925 422.1484375 56.85595703 C425.86971083 56.72922205 429.589937 56.64075594 433.3125 56.5625 C434.43696533 56.51609375 435.56143066 56.4696875 436.7199707 56.421875 C439.60493114 56.38243787 442.17938109 56.39435652 445 57 C447.91190018 60.05435285 448.88675205 61.69764852 449.25 65.875 C449.1675 66.57625 449.085 67.2775 449 68 C446.69 67.67 444.38 67.34 442 67 C441.01 68.32 440.02 69.64 439 71 C440.32 71.66 441.64 72.32 443 73 C443 77 443 77 441.453125 79.046875 C438.45286569 81.43561649 435.27973191 82.84384664 431.75 84.25 C431.1003125 84.518125 430.450625 84.78625 429.78125 85.0625 C428.19114246 85.71725016 426.59605042 86.35987282 425 87 C424.83312552 89.41645782 424.83312552 89.41645782 425 92 C425.66 92.66 426.32 93.32 427 94 C427.29290091 96.78255865 427.29462627 98.46274032 425.9375 100.9375 C424.61273628 103.85198018 425.30661873 105.94912242 426 109 C424.906875 109.12375 423.81375 109.2475 422.6875 109.375 C420.69303106 109.81693346 420.69303106 109.81693346 419 111 C417.92362165 113.49544043 417.35884333 115.94474463 416.74609375 118.58984375 C415.71474504 121.92147806 413.87704781 123.15573859 411 125 C408.27613755 129.08579368 408.48215768 132.19886192 409 137 C409.47678637 138.72114639 409.99850455 140.43042652 410.5625 142.125 C412.0489019 146.59816254 412.16363372 149.44243461 411 154 C410 155 410 155 406.625 155.125 C405.42875 155.41375 404.2325 155.7025 403 156 C401.23924485 159.35838543 401.23924485 159.35838543 400 163 C397.59207437 165.25257559 394.98109363 166.61592082 392 168 C392.66 168.99 393.32 169.98 394 171 C394.39837579 174.08741239 394.63299516 176.04408682 394 179 C389.53556942 184.18839229 383.21657798 186.40054123 377 189 C377.061875 190.918125 377.061875 190.918125 377.125 192.875 C377.1953125 195.0546875 377.1953125 195.0546875 377 197 C376.34 197.66 375.68 198.32 375 199 C374.01 198.979375 373.02 198.95875 372 198.9375 C370.515 198.9684375 370.515 198.9684375 369 199 C367.03103546 201.95344681 366.66015285 203.05785837 366.3125 206.4375 C366.18294922 207.58025391 366.18294922 207.58025391 366.05078125 208.74609375 C365.89262714 210.94726627 365.89262714 210.94726627 366.49609375 212.7890625 C367.26731847 216.17288569 366.95666812 219.50242537 366.75 222.9375 C366.72292969 223.64068359 366.69585938 224.34386719 366.66796875 225.06835938 C366.41123652 229.48663823 365.71743696 232.48101689 363 236 C358.881354 238.65423853 355.86841035 239.3477436 351 239 C351.061875 240.6396875 351.061875 240.6396875 351.125 242.3125 C351 246 351 246 349 249 C347.35 248.67 345.7 248.34 344 248 C343.67 248.99 343.34 249.98 343 251 C335 237.66666667 327 224.33333333 319 211 C322.27758625 209.2582875 325.6371164 208.01068082 329.125 206.75 C345.26220624 200.55172258 354.38395325 191.30228748 362 176 C365.99391048 166.63496853 366.20399347 157.37067697 366.25 147.3125 C366.270625 146.20455078 366.29125 145.09660156 366.3125 143.95507812 C366.39088134 127.19126936 360.7519204 112.13237825 349 100 C328.5597249 81.83903615 299.58244418 80.72336248 273.7578125 80.5859375 C271.78636946 80.56896421 269.81493353 80.55114342 267.84350586 80.5324707 C260.60408528 80.46975399 253.36453095 80.42332614 246.125 80.375 C221.808125 80.189375 221.808125 80.189375 197 80 C197 123.23 197 166.46 197 211 C194.14136332 207.18848442 192.36086374 203.55411478 190.54296875 199.21484375 C190.2076564 198.42730713 189.87234406 197.63977051 189.52687073 196.82836914 C188.79519041 195.10826213 188.06600054 193.38709414 187.33898926 191.66500854 C185.75774862 187.9195569 184.16476446 184.17913647 182.57247925 180.43836975 C181.7197634 178.43483237 180.86766568 176.43103181 180.0161438 174.42698669 C175.44186136 163.66721351 170.80257287 152.93573157 166.162323 142.20428467 C157.35730581 121.83777136 148.63609996 101.43876989 140 81 C119.705 80.505 119.705 80.505 99 80 C98.01 82.97 97.02 85.94 96 89 C95.30632158 90.76883185 94.5890802 92.52881226 93.8371582 94.27368164 C93.23149773 95.68666283 93.23149773 95.68666283 92.61360168 97.12818909 C92.18037094 98.12873825 91.7471402 99.12928741 91.30078125 100.16015625 C90.83794235 101.23728378 90.37510345 102.31441132 89.89823914 103.42417908 C88.37300109 106.97173436 86.84271453 110.5170888 85.3125 114.0625 C84.23159994 116.57321443 83.15188928 119.08443962 82.07226562 121.59570312 C80.11203521 126.15446159 78.15066726 130.7127271 76.18778801 135.27034569 C71.26870954 146.69245837 66.37130061 158.12383424 61.47528076 169.55584717 C59.99531282 173.01094257 58.51463295 176.46573196 57.03369141 179.92041016 C52.40853776 190.70978243 47.78521216 201.49992989 43.16769409 212.29257202 C41.28642312 216.68967606 39.40432041 221.08642396 37.52204704 225.48309898 C36.25155771 228.45092229 34.98166029 231.41899659 33.71264648 234.38745117 C26.90857242 250.30302759 20.00231772 266.17060994 13 282 C12.67 282 12.34 282 12 282 C11.81725689 264.20285189 12.30439271 246.43276076 12.78515053 228.64445972 C13.10865588 216.59153348 13.37893773 204.53733372 13.64755249 192.483078 C13.68785797 190.67800839 13.72819158 188.87293941 13.76855469 187.06787109 C13.78800707 186.1960875 13.80745945 185.32430391 13.8275013 184.42610264 C13.94449704 179.24921458 14.07734714 174.07311538 14.22363281 168.89697266 C15.1881272 134.08685657 11.88116179 100.65265085 7.01757812 66.27392578 C5.69792059 56.91958407 4.51430355 47.55003579 3.37460327 38.17227173 C2.99671546 35.08809082 2.60279634 32.00608076 2.204422 28.92448425 C1.03615596 19.20597681 0.54786764 9.86161749 0 0 Z " fill="#FEFEFE" transform="translate(299,323)"/>
<path d="M0 0 C1.31592636 -0.00705963 2.63185272 -0.01411926 3.98765564 -0.02139282 C8.21443229 -0.04093212 12.44115117 -0.04608491 16.66796875 -0.046875 C17.74794884 -0.04731686 17.74794884 -0.04731686 18.8497467 -0.04776764 C39.99169169 -0.049166 60.89465535 0.08856631 81.85546875 3.203125 C83.28887566 3.40934716 84.72230787 3.61539347 86.15576172 3.82128906 C136.99242921 11.2224352 185.58281652 25.93081107 231.85546875 48.203125 C233.14686768 48.81704102 233.14686768 48.81704102 234.46435547 49.44335938 C267.85726807 65.36733613 299.6702353 86.23946837 327.85546875 110.203125 C328.38414551 110.64833496 328.91282227 111.09354492 329.45751953 111.55224609 C342.43370609 122.48092272 354.71911485 133.97824163 366.73046875 145.953125 C367.22892303 146.44890045 367.72737732 146.9446759 368.24093628 147.45547485 C373.9999328 153.19098222 379.58991294 159.0082537 384.85546875 165.203125 C385.8045273 166.28643906 386.75499531 167.36852034 387.70703125 168.44921875 C395.50802845 177.39247004 402.77337161 186.68327335 409.85546875 196.203125 C410.39848633 196.93047852 410.94150391 197.65783203 411.50097656 198.40722656 C425.16843854 216.78480615 436.82439992 236.14858471 447.85546875 256.203125 C448.30664062 257.01749023 448.7578125 257.83185547 449.22265625 258.67089844 C478.34034257 311.45773433 495.56054909 371.37511455 502.16796875 431.140625 C502.29007217 432.24204834 502.29007217 432.24204834 502.41464233 433.36572266 C504.30708328 450.72665208 505.06446952 467.99210808 505.04296875 485.453125 C505.04206238 486.82591614 505.04206238 486.82591614 505.0411377 488.22644043 C504.91826444 557.2542391 490.3793857 625.32671495 461.85546875 688.203125 C461.41380371 689.1813623 460.97213867 690.15959961 460.51708984 691.16748047 C440.58553566 734.95286255 413.51088246 775.17740564 381.12109375 810.69140625 C379.88843829 812.05795359 378.66206049 813.43076239 377.47045898 814.83325195 C372.30500311 820.88282118 366.71724651 826.49327293 361.08569336 832.10327148 C359.42120598 833.7623982 357.76213428 835.42680551 356.10351562 837.09179688 C350.52628995 842.6727744 344.87789757 848.09987759 338.85546875 853.203125 C337.80673348 854.12810343 336.75978608 855.05511384 335.71484375 855.984375 C325.86379545 864.63977739 315.44371615 872.47639561 304.85546875 880.203125 C304.11361328 880.74501465 303.37175781 881.2869043 302.60742188 881.84521484 C268.69814559 906.48894367 231.80058338 925.85456903 192.85546875 941.203125 C191.91058594 941.57920898 190.96570313 941.95529297 189.9921875 942.34277344 C152.71066883 957.04826136 112.63732441 965.90790546 72.85546875 970.203125 C72.0841864 970.28926056 71.31290405 970.37539612 70.51824951 970.46414185 C54.51500282 972.20907115 38.56314459 972.54812987 22.47949219 972.51879883 C19.74429785 972.51418922 17.00955065 972.52103087 14.27441406 972.53930664 C-11.87938123 972.71198949 -37.65820509 970.94436177 -63.45703125 966.390625 C-64.20202881 966.26207123 -64.94702637 966.13351746 -65.71459961 966.00106812 C-102.02745996 959.725084 -137.20663368 949.58984245 -171.14453125 935.203125 C-172.05009766 934.81946777 -172.95566406 934.43581055 -173.88867188 934.04052734 C-179.70031365 931.55092192 -185.43606122 928.92018485 -191.14453125 926.203125 C-192.05025879 925.77483398 -192.95598633 925.34654297 -193.88916016 924.90527344 C-223.03271474 911.02550055 -250.67045051 894.04420479 -276.14453125 874.203125 C-277.25644669 873.34757343 -278.36842941 872.49210928 -279.48046875 871.63671875 C-285.50246623 866.97936132 -291.41564248 862.2071638 -297.20703125 857.265625 C-297.71153809 856.83660889 -298.21604492 856.40759277 -298.73583984 855.96557617 C-309.13270372 847.00382251 -319.03733159 837.49706344 -328.73925781 827.79370117 C-330.40281933 826.13234792 -332.07428229 824.4792181 -333.74609375 822.82617188 C-339.6055317 816.99646767 -345.09801929 811.08485368 -350.22119141 804.58789062 C-352.14134952 802.20707006 -354.16583811 799.98465738 -356.26953125 797.765625 C-363.53854166 789.77351931 -369.77601354 780.91437764 -376.14453125 772.203125 C-376.6854541 771.46610352 -377.22637695 770.72908203 -377.78369141 769.96972656 C-422.83306903 708.3292372 -451.64837213 635.53167834 -463.14453125 560.203125 C-463.29615723 559.21634766 -463.4477832 558.22957031 -463.60400391 557.21289062 C-464.60225286 550.55789758 -465.42613104 543.89379533 -466.14453125 537.203125 C-466.30115234 535.79595215 -466.30115234 535.79595215 -466.4609375 534.36035156 C-475.45688239 449.83832507 -460.81891081 361.246013 -425.14453125 284.203125 C-424.6846582 283.20120117 -424.22478516 282.19927734 -423.75097656 281.16699219 C-405.86558014 242.38099033 -382.97065203 205.91846801 -355.02807617 173.55786133 C-353.17970741 171.41585893 -351.35136934 169.2596894 -349.54223633 167.08447266 C-342.26197521 158.37873541 -334.49367718 150.27170866 -326.43408203 142.28686523 C-324.37725118 140.24850007 -322.32874508 138.20203553 -320.28125 136.15429688 C-318.94969219 134.82764964 -317.61767726 133.50146102 -316.28515625 132.17578125 C-315.68600403 131.57774185 -315.08685181 130.97970245 -314.46954346 130.36354065 C-310.18268277 126.12372833 -305.71724094 122.13150902 -301.14453125 118.203125 C-300.60671524 117.73767273 -300.06889923 117.27222046 -299.51478577 116.79266357 C-291.61172512 109.97061061 -283.52027358 103.43691083 -275.14453125 97.203125 C-274.48356445 96.71086426 -273.82259766 96.21860352 -273.14160156 95.71142578 C-248.50344199 77.45187519 -222.49648041 62.02352101 -195.14453125 48.203125 C-193.94691162 47.59621826 -193.94691162 47.59621826 -192.72509766 46.97705078 C-134.3571226 17.66180094 -65.51126186 0.23415346 0 0 Z M-42.14453125 14.203125 C-42.84332397 14.30258423 -43.5421167 14.40204346 -44.26208496 14.5045166 C-139.3895331 28.1181342 -228.56040079 68.18899662 -299.78515625 133.0625 C-301.28239291 134.42092002 -302.79157533 135.7663792 -304.31640625 137.09375 C-310.39158625 142.41476972 -316.11373624 148.06537913 -321.83203125 153.765625 C-322.64019287 154.56919434 -323.44835449 155.37276367 -324.28100586 156.20068359 C-329.10865323 161.04073626 -333.70249271 166.00873377 -338.14453125 171.203125 C-339.09391328 172.28615558 -340.04438169 173.36823511 -340.99609375 174.44921875 C-348.79732421 183.39273745 -356.05945457 192.68519531 -363.14453125 202.203125 C-363.67691406 202.91452637 -364.20929688 203.62592773 -364.7578125 204.35888672 C-377.42631181 221.34654288 -388.90222591 239.13147235 -398.87744141 257.83349609 C-400.22666418 260.35672465 -401.59818756 262.86721269 -402.96875 265.37890625 C-430.86254546 317.04294649 -447.67142265 374.10443504 -454.39453125 432.328125 C-454.47788727 433.04807648 -454.56124329 433.76802795 -454.64712524 434.50979614 C-456.58507038 451.50597692 -457.35424964 468.41281007 -457.33203125 485.515625 C-457.331427 486.38507751 -457.33082275 487.25453003 -457.3302002 488.15032959 C-457.15707896 580.62451545 -429.61188401 672.68430925 -371.14453125 759.203125 C-370.6139209 759.94481934 -370.08331055 760.68651367 -369.53662109 761.45068359 C-358.76136762 776.45896136 -347.38528418 790.90989723 -334.7421875 804.39453125 C-332.76092875 806.53667417 -330.84917826 808.70192519 -328.94921875 810.9140625 C-324.58892985 815.91774045 -319.90882492 820.58499469 -315.20703125 825.265625 C-313.9240918 826.55436523 -313.9240918 826.55436523 -312.61523438 827.86914062 C-307.61975803 832.85699611 -302.50900478 837.6170836 -297.14453125 842.203125 C-295.94120798 843.26001296 -294.73936143 844.31858483 -293.5390625 845.37890625 C-285.6366656 852.31600001 -277.60935836 858.95608713 -269.14453125 865.203125 C-268.45987793 865.7084375 -267.77522461 866.21375 -267.06982422 866.734375 C-242.97101169 884.450489 -217.89028511 899.76905574 -191.14453125 913.203125 C-189.85627441 913.8542627 -189.85627441 913.8542627 -188.54199219 914.51855469 C-107.7942698 955.0638217 -10.61636104 970.99971783 78.85546875 958.203125 C79.5377655 958.10837891 80.22006226 958.01363281 80.92303467 957.91601562 C135.37131723 950.35070668 186.68854741 933.71559555 235.85546875 909.203125 C236.7151123 908.77531738 237.57475586 908.34750977 238.46044922 907.90673828 C268.8049184 892.68317474 296.90416508 873.02158117 322.85546875 851.203125 C323.37641113 850.76709961 323.89735352 850.33107422 324.43408203 849.88183594 C340.86883127 836.09599848 357.35480098 821.50784202 371.234375 805.1015625 C373.13640525 802.87412467 375.12154595 800.73289529 377.10546875 798.578125 C382.20382603 792.92578663 386.86389629 786.96855638 391.50878906 780.94384766 C392.75814741 779.32892289 394.02109748 777.72453807 395.28515625 776.12109375 C452.56771783 702.96844544 485.28112106 613.45324809 492.85546875 521.203125 C492.96133301 519.9960791 492.96133301 519.9960791 493.06933594 518.76464844 C501.40400648 421.08583757 474.45455805 322.26219736 401.85546875 205.203125 C401.02146108 204.07080887 400.1880761 202.9380337 399.35546875 201.8046875 C394.39065188 195.09873693 389.21446462 188.59767563 383.85546875 182.203125 C383.20070557 181.41881104 383.20070557 181.41881104 382.53271484 180.61865234 C368.57632912 163.94483278 353.71056706 147.14538501 337.07421875 133.08203125 C335.23942552 131.52827149 333.43488578 129.95103267 331.63671875 128.35546875 C323.01937979 120.73979545 314.12064728 113.61090749 304.90478516 106.73339844 C302.98003084 105.29613848 301.063784 103.8481948 299.1484375 102.3984375 C276.23074071 85.18224676 251.39721167 71.10885979 225.85546875 58.203125 C225.05705566 57.79852051 224.25864258 57.39391602 223.43603516 56.97705078 C178.18234163 34.24843409 128.80092015 21.23833277 78.85546875 14.203125 C77.60733398 14.02378418 76.35919922 13.84444336 75.07324219 13.65966797 C36.92464488 8.45006158 -4.04533893 8.71002634 -42.14453125 14.203125 Z " fill="#51C2EB" transform="translate(488.14453125,15.796875)"/>
<path d="M0 0 C8.25 0 16.5 0 25 0 C25.82242188 1.65644531 26.64484375 3.31289063 27.4921875 5.01953125 C32.85963168 15.80699404 38.24029052 26.57979119 43.89672852 37.21948242 C46.7107906 42.52383513 49.47711049 47.85136623 52.22265625 53.19140625 C52.59846832 53.92228958 52.9742804 54.65317291 53.36148071 55.40620422 C55.25143424 59.08350605 57.13895577 62.76204197 59.02441406 66.44165039 C59.37847321 67.13108231 59.73253235 67.82051422 60.09732056 68.53083801 C60.78797174 69.87590208 61.47711379 71.22174227 62.16464233 72.56840515 C64.36754558 76.85890976 66.71025472 81.02721169 69.29174805 85.10107422 C70.26248726 87.70376625 69.76429516 89.37226243 69 92 C67.55089581 94.32765516 65.91436441 95.99225196 64 98 C63.34 98 62.68 98 62 98 C62 98.99 62 99.98 62 101 C62.78375 101.28875 63.5675 101.5775 64.375 101.875 C67 103 67 103 69 105 C68.625 107.625 68.625 107.625 68 110 C66.02 110.66 64.04 111.32 62 112 C63.46528313 115.86301917 65.44692439 117.04580842 69 119 C71.57399511 121.57399511 71.32659936 122.73569284 71.375 126.3125 C71.31689084 131.25823498 70.42999621 133.34871372 67 137 C66.75225614 139.17576488 66.75225614 139.17576488 68 141 C68.83015625 141.39574219 69.6603125 141.79148437 70.515625 142.19921875 C73 144 73 144 73.70703125 147.13671875 C73.74183594 148.30847656 73.77664063 149.48023438 73.8125 150.6875 C73.86019531 151.86699219 73.90789062 153.04648437 73.95703125 154.26171875 C73.97121094 155.16535156 73.98539063 156.06898438 74 157 C72.35 157.99 70.7 158.98 69 160 C68.34 164.29 67.68 168.58 67 173 C-19.13 173 -105.26 173 -194 173 C-194.78852707 168.26883759 -195.13794582 163.9945164 -195.11352539 159.25048828 C-195.11367142 158.49858719 -195.11381744 157.7466861 -195.1139679 156.97200012 C-195.11327528 154.50474082 -195.10551358 152.0375585 -195.09765625 149.5703125 C-195.09578975 147.85252931 -195.09436694 146.13474558 -195.09336853 144.41696167 C-195.08956159 139.90920527 -195.07974696 135.4014814 -195.06866455 130.89373779 C-195.05841115 126.288538 -195.05386251 121.68333293 -195.04882812 117.078125 C-195.03812298 108.05206909 -195.02106856 99.02603726 -195 90 C-193.02 90 -191.04 90 -189 90 C-188.83999512 89.42169434 -188.67999023 88.84338867 -188.51513672 88.24755859 C-186.48641705 81.18259463 -183.89481031 74.42891843 -181.125 67.625 C-180.70347656 66.57828125 -180.28195312 65.5315625 -179.84765625 64.453125 C-176.95138366 57.27887179 -173.97611036 50.14266486 -171 43 C-141.96 43 -112.92 43 -83 43 C-77.37571295 55.3734315 -77.37571295 55.3734315 -75.17578125 61.0234375 C-74.70462891 62.22871094 -74.23347656 63.43398438 -73.74804688 64.67578125 C-73.27431641 65.89652344 -72.80058594 67.11726562 -72.3125 68.375 C-71.82255073 69.63162162 -71.33231762 70.8881326 -70.84179688 72.14453125 C-69.94557532 74.44133076 -69.0506366 76.7386316 -68.1574707 79.03662109 C-67.42258026 80.91810184 -66.65622714 82.787828 -65.84838867 84.63916016 C-65 87 -65 87 -65 91 C-43.55 91 -22.1 91 0 91 C0 60.97 0 30.94 0 0 Z " fill="#FEFEFE" transform="translate(545,538)"/>
<path d="M0 0 C1.05835052 -0.0061734 2.11670105 -0.0123468 3.2071228 -0.01870728 C49.06653177 -0.19080513 94.73780869 10.49254216 136.0625 30.4375 C137.0205957 30.89672852 137.97869141 31.35595703 138.96582031 31.82910156 C194.5768006 58.81288514 243.59106187 103.44817115 274.0625 157.4375 C274.51979492 158.23607422 274.97708984 159.03464844 275.44824219 159.85742188 C302.6785508 207.56879979 317.50837675 261.29075568 317.5 316.3125 C317.50139984 317.20748199 317.50279968 318.10246399 317.50424194 319.02456665 C317.48001663 338.12906982 315.32681875 356.64050392 312.0625 375.4375 C311.79808105 377.04383301 311.79808105 377.04383301 311.52832031 378.68261719 C307.16788693 404.55800333 297.81431532 431.02212409 286.0625 454.4375 C285.60327148 455.37996582 285.14404297 456.32243164 284.67089844 457.29345703 C270.73960614 485.82660481 252.59580057 513.7920797 229.56640625 535.93359375 C227.97440589 537.52559411 226.55657324 539.20052447 225.125 540.9375 C222.44687858 544.11469392 219.51954275 546.77161363 216.3515625 549.453125 C214.72746607 550.86104477 213.14216722 552.31428391 211.5859375 553.796875 C198.11250416 566.62510167 182.77201439 577.512995 167.0625 587.4375 C166.45631836 587.82099609 165.85013672 588.20449219 165.22558594 588.59960938 C142.61320104 602.78730647 117.65479334 613.8821981 92.0625 621.4375 C91.21800293 621.68838379 90.37350586 621.93926758 89.50341797 622.19775391 C60.05245546 630.83720096 30.59378798 634.66168084 -0.0625 634.625 C-0.92089478 634.62472809 -1.77928955 634.62445618 -2.66369629 634.62417603 C-15.52639753 634.60546544 -28.18268309 634.22040097 -40.9375 632.4375 C-41.66501465 632.34629883 -42.3925293 632.25509766 -43.14208984 632.16113281 C-113.60429086 623.30089576 -176.82805501 589.48574003 -226.8125 539.8125 C-227.34715881 539.28328949 -227.88181763 538.75407898 -228.43267822 538.20883179 C-235.40408211 531.2903695 -241.86846293 524.17796038 -247.9375 516.4375 C-248.79722412 515.35879639 -248.79722412 515.35879639 -249.67431641 514.25830078 C-273.38222662 484.36823627 -290.90398698 450.58557887 -302.9375 414.4375 C-303.23672363 413.54111816 -303.53594727 412.64473633 -303.84423828 411.72119141 C-307.78419117 399.73783037 -310.47103487 387.71209045 -312.55200195 375.27490234 C-312.87409034 373.35263043 -312.87409034 373.35263043 -313.9375 371.4375 C-328.94510931 286.7272055 -306.80867886 201.39317625 -257.9375 131.4375 C-248.97855435 118.86410326 -238.69008834 107.29261185 -228.1875 96 C-227.58591064 95.34990967 -226.98432129 94.69981934 -226.36450195 94.0300293 C-222.67639725 90.10502297 -218.82384379 86.49214551 -214.73681641 82.98510742 C-212.60372946 81.1504211 -210.55617276 79.23263108 -208.5 77.3125 C-151.56052738 26.11043989 -75.80238803 0.18654654 0 0 Z M-66.9375 19.4375 C-68.36715088 19.76838623 -68.36715088 19.76838623 -69.82568359 20.10595703 C-96.24169053 26.23696518 -120.96051295 35.74271715 -144.9375 48.4375 C-145.57429687 48.77185059 -146.21109375 49.10620117 -146.8671875 49.45068359 C-163.68543978 58.35371925 -179.28894415 69.31688565 -193.9375 81.4375 C-194.5135498 81.91058594 -195.08959961 82.38367188 -195.68310547 82.87109375 C-210.67111551 95.25910095 -225.17562028 108.910968 -236.9375 124.4375 C-237.95833209 125.74320752 -238.98058814 127.04780243 -240.00390625 128.3515625 C-282.5478699 182.85419998 -305.21470878 247.80270372 -305.125 316.9375 C-305.12406342 317.86980438 -305.12312683 318.80210876 -305.12216187 319.76266479 C-305.0730591 342.30857386 -303.02701897 363.43253558 -297.9375 385.4375 C-297.66695801 386.61376953 -297.39641602 387.79003906 -297.11767578 389.00195312 C-291.20831662 414.10921343 -282.17568364 437.71537115 -269.9375 460.4375 C-269.5751123 461.1274707 -269.21272461 461.81744141 -268.83935547 462.52832031 C-258.04343992 483.06199662 -244.68395049 502.15378928 -228.96484375 519.2265625 C-227.1760666 521.17732911 -225.45906881 523.16730395 -223.75 525.1875 C-214.99952402 535.19674515 -205.38970238 544.23719488 -194.9375 552.4375 C-193.8077895 553.36593252 -192.68030774 554.29708146 -191.5546875 555.23046875 C-182.12447907 563.00355492 -172.25835459 569.89951549 -161.9375 576.4375 C-161.27089355 576.86240723 -160.60428711 577.28731445 -159.91748047 577.72509766 C-133.70428227 594.26320695 -104.9514492 606.01432526 -74.9375 613.4375 C-73.80828125 613.72318848 -73.80828125 613.72318848 -72.65625 614.01464844 C-62.90204572 616.45761717 -53.06599183 618.12926621 -43.125 619.625 C-42.01616455 619.79209473 -40.9073291 619.95918945 -39.76489258 620.13134766 C-26.84773553 621.99599636 -14.04052138 622.64703172 -1 622.625 C-0.27695679 622.62406342 0.44608643 622.62312683 1.19104004 622.62216187 C13.5742779 622.587607 25.78365018 622.12694229 38.0625 620.4375 C39.12758789 620.2921582 40.19267578 620.14681641 41.29003906 619.99707031 C100.99851335 611.49637534 158.92095382 586.02903654 203.0625 544.4375 C204.28819347 543.39174876 205.51738355 542.3500822 206.75 541.3125 C217.11878741 532.2503484 226.58958857 522.28045658 235.0625 511.4375 C236.01304295 510.27392756 236.96634331 509.11260416 237.921875 507.953125 C263.35985149 476.95186387 281.92581219 439.88659707 293.0625 401.4375 C293.25312012 400.79876953 293.44374023 400.16003906 293.64013672 399.50195312 C296.79799958 388.82476329 298.97388931 378.03665987 300.8125 367.0625 C301.02318115 365.8154126 301.2338623 364.5683252 301.45092773 363.28344727 C303.74673132 349.09950055 304.24902313 335.1487459 304.24780273 320.81152344 C304.24997473 317.97054721 304.26815358 315.12996973 304.28710938 312.2890625 C304.33882162 295.67729145 303.2420969 279.17416917 300.25 262.8125 C300.07823242 261.85851318 299.90646484 260.90452637 299.72949219 259.92163086 C290.50301731 210.34377056 268.08221026 163.28535301 236.0625 124.4375 C235.28471191 123.48617187 235.28471191 123.48617187 234.49121094 122.515625 C222.15584202 107.52740393 208.44536164 93.30300688 193.0625 81.4375 C191.96179027 80.52842414 190.86434979 79.61538096 189.76953125 78.69921875 C165.23808476 58.3161032 136.06613465 42.19773207 106.0625 31.4375 C104.79129261 30.93845178 103.52042001 30.43854927 102.25 29.9375 C87.52731902 24.51494877 72.34987047 20.87221702 57.0625 17.4375 C56.25627197 17.251875 55.45004395 17.06625 54.61938477 16.875 C47.07171798 15.23681945 39.4334124 14.50525851 31.75 13.8125 C30.6696196 13.71494415 30.6696196 13.71494415 29.56741333 13.61541748 C-2.60392167 10.77717323 -35.43745184 11.8796951 -66.9375 19.4375 Z " fill="#FBFDFE" transform="translate(506.9375,184.5625)"/>
<path d="M0 0 C10.51875 -0.0928125 10.51875 -0.0928125 21.25 -0.1875 C23.43786133 -0.21481201 25.62572266 -0.24212402 27.87988281 -0.27026367 C42.60082236 -0.3786243 55.34357896 0.09161158 66.6640625 10.53515625 C71.67932377 16.6851554 70.94044351 25.49899371 70.29541016 33.00097656 C69.67492936 37.19973424 67.96093315 40.04731458 65 43 C63.948125 44.11375 63.948125 44.11375 62.875 45.25 C54.66158266 50.24947142 46.68649925 51.58427802 37.20703125 51.390625 C36.25485718 51.38659668 35.30268311 51.38256836 34.32165527 51.37841797 C30.81840302 51.3577391 27.31542887 51.30189694 23.8125 51.25 C12.0253125 51.12625 12.0253125 51.12625 0 51 C0 34.17 0 17.34 0 0 Z " fill="#FEFEFE" transform="translate(545,445)"/>
<path d="M0 0 C2.45511438 2.45511438 3.17010161 4.62365195 4.42578125 7.86328125 C4.89306641 9.06146484 5.36035156 10.25964844 5.84179688 11.49414062 C6.33214165 12.76688455 6.82237562 14.03967118 7.3125 15.3125 C7.78623047 16.53001953 8.25996094 17.74753906 8.74804688 19.00195312 C10.60544114 23.78137666 12.45099931 28.56520441 14.28344727 33.35424805 C17.64544919 42.13755256 21.14559522 50.86090996 24.68945312 59.57226562 C25.11806641 60.63509766 25.54667969 61.69792969 25.98828125 62.79296875 C26.56896362 64.22419067 26.56896362 64.22419067 27.16137695 65.68432617 C28 68 28 68 28 70 C9.85 70 -8.3 70 -27 70 C-23.62218774 58.74062581 -23.62218774 58.74062581 -22.1328125 54.8515625 C-21.80410156 53.99046875 -21.47539062 53.129375 -21.13671875 52.2421875 C-20.80285156 51.37851562 -20.46898437 50.51484375 -20.125 49.625 C-19.79886719 48.7690625 -19.47273438 47.913125 -19.13671875 47.03125 C-17.35462098 42.38531418 -15.49980158 37.77811427 -13.5703125 33.19140625 C-10.32234796 25.44865777 -7.37215615 17.59527354 -4.3984375 9.74414062 C-3.97304688 8.62845703 -3.54765625 7.51277344 -3.109375 6.36328125 C-2.72749023 5.35563721 -2.34560547 4.34799316 -1.95214844 3.30981445 C-1 1 -1 1 0 0 Z " fill="#FBFDFE" transform="translate(417,469)"/>
<path d="M0 0 C6.76048241 4.06138209 10.63127619 9.45577502 12.57421875 17.05859375 C13.36618795 22.6665919 12.28881801 27.09742959 9.57421875 32.05859375 C5.17277109 37.31587846 -0.88833084 41.61785414 -7.87890625 42.296875 C-14.39889716 42.46989152 -18.19026646 42.03758499 -23.42578125 38.05859375 C-28.75717831 32.72719669 -31.47549098 27.06879862 -31.86328125 19.55859375 C-31.63761775 14.69429156 -30.49191548 10.88543976 -27.42578125 7.05859375 C-19.52299357 0.37161956 -10.38704272 -4.03104234 0 0 Z " fill="#F9FCFE" transform="translate(662.42578125,833.94140625)"/>
<path d="M0 0 C5.34153154 3.76361741 8.42445951 8.97767369 9.78515625 15.2578125 C10.38837544 20.84862447 10.59105144 25.55303422 8.16015625 30.6953125 C2.33248018 36.98306826 -3.38466478 41.26102211 -12.15234375 41.7578125 C-18.32092505 41.55156814 -22.31977314 39.00209819 -26.71484375 34.8359375 C-31.5803912 29.44908139 -33.79719422 23.69719557 -33.4921875 16.5234375 C-32.80717856 10.9275898 -31.20801988 6.82055111 -27.02734375 2.9453125 C-18.89038612 -3.31519788 -9.17671569 -5.21777472 0 0 Z " fill="#F9FCFE" transform="translate(875.21484375,354.7421875)"/>
<path d="M0 0 C10.8712879 4.06254809 21.40606341 8.14118192 27 19 C27.9977956 25.51713345 27.58103526 31.64988029 24.203125 37.3828125 C21.19915416 41.42061746 17.6634175 43.38389643 13 45 C1.86485547 46.49162372 -7.38366623 42.08032727 -17 37 C-15.5815655 32.46109632 -13.79908381 28.18267731 -11.77734375 23.88671875 C-11.47180069 23.23169876 -11.16625763 22.57667877 -10.85145569 21.90180969 C-10.2100845 20.52877217 -9.56711117 19.156482 -8.92260742 17.78491211 C-7.93313571 15.6782079 -6.94961485 13.56879961 -5.96679688 11.45898438 C-5.34149394 10.12223294 -4.71585494 8.78563865 -4.08984375 7.44921875 C-3.79504623 6.81698898 -3.50024872 6.18475922 -3.19651794 5.53337097 C-1.1155429 1.1155429 -1.1155429 1.1155429 0 0 Z " fill="#FAFDFE" transform="translate(339,823)"/>
<path d="M0 0 C1.25941406 -0.02578125 2.51882813 -0.0515625 3.81640625 -0.078125 C8.56991835 0.35261396 11.78847237 1.72888437 15.30078125 4.96875 C15.77902344 5.5565625 16.25726563 6.144375 16.75 6.75 C17.48669922 7.63171875 17.48669922 7.63171875 18.23828125 8.53125 C21.61709642 13.37385155 20.83363753 19.62185738 20.4375 25.25 C18.73123904 30.66988776 15.10734469 34.16271379 10.4375 37.25 C5.27470252 39.82825452 0.71340752 40.86772743 -5 41.4375 C-6.09731445 41.5602832 -6.09731445 41.5602832 -7.21679688 41.68554688 C-8.99764466 41.88341885 -10.77994927 42.06810707 -12.5625 42.25 C-13.35741387 38.64654185 -14.14781377 35.04210707 -14.9375 31.4375 C-15.15921875 30.43267578 -15.3809375 29.42785156 -15.609375 28.39257812 C-19.71477575 9.61640706 -19.71477575 9.61640706 -19.5625 3.25 C-13.27237091 0.39085041 -6.83658014 0.08414252 0 0 Z " fill="#FBFDFE" transform="translate(433.5625,109.75)"/>
<path d="M0 0 C4.66209202 1.72312209 8.03332953 4.04444161 12 7 C11.08893941 11.13481345 10.17348967 15.26626563 9.19921875 19.38671875 C8.79123047 21.11341797 8.79123047 21.11341797 8.375 22.875 C8.11460937 23.96554688 7.85421875 25.05609375 7.5859375 26.1796875 C6.89829365 29.00945728 6.89829365 29.00945728 7 32 C7.55461914 31.57066162 8.10923828 31.14132324 8.68066406 30.69897461 C11.19386989 28.76519359 13.72153551 26.85127973 16.25 24.9375 C17.12269531 24.26138672 17.99539063 23.58527344 18.89453125 22.88867188 C20.16103516 21.93637695 20.16103516 21.93637695 21.453125 20.96484375 C22.22817383 20.3730835 23.00322266 19.78132324 23.80175781 19.17163086 C26 18 26 18 28.15039062 18.24023438 C30.35269234 19.14487574 32.25395815 20.26507279 34.25 21.5625 C34.95640625 22.01753906 35.6628125 22.47257812 36.390625 22.94140625 C36.92171875 23.29074219 37.4528125 23.64007813 38 24 C37.36234418 27.45064019 36.01053061 29.77558685 34.05078125 32.66796875 C33.44943359 33.56193359 32.84808594 34.45589844 32.22851562 35.37695312 C31.59623047 36.30443359 30.96394531 37.23191406 30.3125 38.1875 C29.69955078 39.09564453 29.08660156 40.00378906 28.45507812 40.93945312 C27.23601888 42.74541894 26.01485675 44.54996722 24.79150391 46.35302734 C22.17334695 50.2213917 19.58482371 54.10931115 17 58 C13.65569263 57.27633685 11.65737657 56.18284504 9 54 C10.60069009 49.2797832 13.19954198 45.50616543 16 41.4375 C16.897981 40.12516491 17.79388228 38.81140385 18.6875 37.49609375 C19.08324219 36.92044678 19.47898437 36.3447998 19.88671875 35.75170898 C21.06898137 33.89146024 22.04642669 31.98579465 23 30 C22.37738281 30.58394531 22.37738281 30.58394531 21.7421875 31.1796875 C17.29651184 35.21613778 12.63057277 38.92277367 7.8125 42.5 C7.21872559 42.95745605 6.62495117 43.41491211 6.01318359 43.88623047 C3.29270159 45.86774088 1.62154039 47.0208047 -1.80078125 46.90625 C-4 46 -4 46 -6 44 C-5.64962324 34.76654194 -1.52764865 24.85641777 1 16 C0.5968457 16.63615234 0.19369141 17.27230469 -0.22167969 17.92773438 C-2.05000946 20.79467308 -3.89958238 23.64727284 -5.75 26.5 C-6.70132813 28.00240234 -6.70132813 28.00240234 -7.671875 29.53515625 C-8.290625 30.48261719 -8.909375 31.43007812 -9.546875 32.40625 C-10.11245117 33.28603516 -10.67802734 34.16582031 -11.26074219 35.07226562 C-12.1216748 36.02649414 -12.1216748 36.02649414 -13 37 C-17.26826873 37 -17.93882432 36.62386487 -21 34 C-20.59027873 28.63160082 -17.52354381 25.12029499 -14.4375 20.9375 C-13.34638869 19.42799876 -12.25655164 17.91757564 -11.16796875 16.40625 C-10.63091309 15.66375 -10.09385742 14.92125 -9.54052734 14.15625 C-6.2315283 9.52470015 -3.11890258 4.76091305 0 0 Z " fill="#F9FCFE" transform="translate(710,158)"/>
<path d="M0 0 C1.18579102 1.52197266 1.18579102 1.52197266 2.50390625 3.6640625 C2.99342773 4.45047119 3.48294922 5.23687988 3.98730469 6.04711914 C4.50711914 6.89781982 5.02693359 7.74852051 5.5625 8.625 C6.64126336 10.36629678 7.72069697 12.1071785 8.80078125 13.84765625 C9.33783691 14.71664551 9.87489258 15.58563477 10.42822266 16.48095703 C13.01983538 20.63446123 15.7024658 24.72929459 18.40844727 28.80908203 C21 32.78089854 21 32.78089854 21 35 C19.4609375 36.32421875 19.4609375 36.32421875 17.375 37.6875 C16.36566406 38.37392578 16.36566406 38.37392578 15.3359375 39.07421875 C11.35444757 40.6521671 8.45830567 39.6158907 4.6015625 37.98706055 C1.81650489 36.69947963 -0.93751388 35.36081787 -3.6875 34 C-5.56572042 33.08192892 -7.44459814 32.16520098 -9.32421875 31.25 C-10.15010498 30.84265625 -10.97599121 30.4353125 -11.8269043 30.015625 C-14.0982026 28.90327016 -14.0982026 28.90327016 -17 28 C-16.59571777 28.58491211 -16.19143555 29.16982422 -15.77490234 29.77246094 C-13.95818427 32.42059408 -12.16651268 35.08475777 -10.375 37.75 C-9.73820313 38.67039062 -9.10140625 39.59078125 -8.4453125 40.5390625 C-7.85234375 41.42851563 -7.259375 42.31796875 -6.6484375 43.234375 C-6.09333496 44.05131836 -5.53823242 44.86826172 -4.96630859 45.70996094 C-4 48 -4 48 -4.63916016 50.21972656 C-6.6244638 52.81693399 -8.91330098 53.19477417 -12 54 C-17.41872223 45.9248109 -22.80321804 37.82695283 -28.125 29.6875 C-28.61009033 28.95281494 -29.09518066 28.21812988 -29.5949707 27.46118164 C-33 22.23020461 -33 22.23020461 -33 20 C-31.171875 18.45703125 -31.171875 18.45703125 -28.75 16.8125 C-27.56664062 15.98685547 -27.56664062 15.98685547 -26.359375 15.14453125 C-23.48677076 13.75103284 -22.95771622 14.011274 -20 15 C-18.03016232 15.87068225 -16.07865645 16.78330427 -14.140625 17.72265625 C-13.02558594 18.26083984 -11.91054688 18.79902344 -10.76171875 19.35351562 C-9.60285156 19.91748047 -8.44398438 20.48144531 -7.25 21.0625 C-6.07566406 21.63033203 -4.90132812 22.19816406 -3.69140625 22.78320312 C-0.7926298 24.18545677 2.1044137 25.59117371 5 27 C4.64172119 26.44538086 4.28344238 25.89076172 3.91430664 25.31933594 C2.29129903 22.79986755 0.67683532 20.275033 -0.9375 17.75 C-1.50146484 16.87730469 -2.06542969 16.00460937 -2.64648438 15.10546875 C-3.18466797 14.26113281 -3.72285156 13.41679688 -4.27734375 12.546875 C-4.77484131 11.77182617 -5.27233887 10.99677734 -5.78491211 10.19824219 C-6.94222373 8.10452432 -7.55070101 6.33728594 -8 4 C-2.25 0 -2.25 0 0 0 Z " fill="#FAFCFE" transform="translate(717,797)"/>
<path d="M0 0 C6.55377097 5.38640924 12.47246635 11.35885127 18.4375 17.375 C19.46525983 18.40778595 20.49325285 19.44033991 21.52148438 20.47265625 C24.01701598 22.97910287 26.50938082 25.4886708 29 28 C28.06725891 29.12894876 27.12859878 30.25300876 26.1875 31.375 C25.66542969 32.00148437 25.14335937 32.62796875 24.60546875 33.2734375 C23 35 23 35 20 37 C17.3203125 36.67626953 17.3203125 36.67626953 14.125 35.8828125 C12.97515625 35.60566406 11.8253125 35.32851562 10.640625 35.04296875 C9.43921875 34.74003906 8.2378125 34.43710938 7 34.125 C4.62565373 33.54160376 2.25068023 32.96075265 -0.125 32.3828125 C-1.17945313 32.11871582 -2.23390625 31.85461914 -3.3203125 31.58251953 C-6.0315437 30.89378887 -6.0315437 30.89378887 -9 31 C-3.39 36.61 2.22 42.22 8 48 C6.38262276 51.23475448 5.52370777 52.70572021 3 55 C-0.46969676 53.51445503 -2.67273821 51.54799607 -5.30078125 48.859375 C-6.11353516 48.03566406 -6.92628906 47.21195313 -7.76367188 46.36328125 C-9.0253418 45.06970703 -9.0253418 45.06970703 -10.3125 43.75 C-15.69840291 38.25110612 -21.06207479 32.90419734 -27 28 C-21.25 21.25 -21.25 21.25 -19 19 C-11.95314146 18.53740535 -4.58694374 20.93151125 2.19750977 22.62744141 C5.20896724 23.37627334 7.88317362 24 11 24 C5.39 18.39 -0.22 12.78 -6 7 C-4.02 4.69 -2.04 2.38 0 0 Z " fill="#FAFDFE" transform="translate(236,207)"/>
<path d="M0 0 C1.66666667 1.66666667 3.33333333 3.33333333 5 5 C5.928125 5.7115625 5.928125 5.7115625 6.875 6.4375 C8 8 8 8 7.68579102 10.71923828 C7.01670905 13.92006542 6.16199392 16.94560603 5.15234375 20.0546875 C4.79462891 21.16328125 4.43691406 22.271875 4.06835938 23.4140625 C3.69517578 24.55617188 3.32199219 25.69828125 2.9375 26.875 C2.56044922 28.0403125 2.18339844 29.205625 1.79492188 30.40625 C0.86705064 33.27208016 -0.064703 36.13658648 -1 39 C-0.32428955 38.38060547 0.3514209 37.76121094 1.04760742 37.12304688 C6.50339432 32.13375233 12.08930641 27.44015871 18 23 C21.82946843 24.45255699 23.12050295 26.42895561 25 30 C17.84729665 36.08377789 10.67840842 42.13927208 3.37890625 48.046875 C1.3714325 49.69504721 -0.56469112 51.39415865 -2.5 53.125 C-3.7375 54.053125 -3.7375 54.053125 -5 55 C-8.93193841 53.68935386 -11.09827664 51.6109646 -13 48 C-13.41040003 39.65519931 -9.5845719 31.66024458 -6.71142578 23.94384766 C-5.74925355 21.31487878 -4.86759508 18.66146317 -4 16 C-4.95261719 16.81984375 -5.90523437 17.6396875 -6.88671875 18.484375 C-8.15360769 19.57296106 -9.42053691 20.66150024 -10.6875 21.75 C-11.31333984 22.28882813 -11.93917969 22.82765625 -12.58398438 23.3828125 C-22.61985518 32 -22.61985518 32 -25.125 32 C-27.48439488 30.74165606 -28.56370524 29.22625688 -30 27 C-28.41413985 22.61801801 -24.97361501 20.13094947 -21.5 17.25 C-20.87432129 16.722854 -20.24864258 16.19570801 -19.60400391 15.65258789 C-13.19617522 10.2750279 -6.71127211 4.9954944 0 0 Z " fill="#FAFDFE" transform="translate(802,233)"/>
<path d="M0 0 C4.11298774 0.93992102 5.69403767 2.27751014 8.41015625 5.55078125 C8.82117617 7.87169016 9.16441797 10.20660373 9.41015625 12.55078125 C10.4465625 12.33421875 11.48296875 12.11765625 12.55078125 11.89453125 C13.92053073 11.61307588 15.29032476 11.33183725 16.66015625 11.05078125 C17.34207031 10.90769531 18.02398437 10.76460938 18.7265625 10.6171875 C22.05648746 9.93827076 24.99348176 9.55078125 28.41015625 9.55078125 C28.12297299 11.22601695 27.77886713 12.89158229 27.41015625 14.55078125 C27.178125 15.81921875 27.178125 15.81921875 26.94140625 17.11328125 C25.41015625 19.55078125 25.41015625 19.55078125 23.56005859 20.23364258 C21.13904144 20.72328359 18.7374688 21.06847798 16.28515625 21.36328125 C15.43566406 21.48380859 14.58617187 21.60433594 13.7109375 21.72851562 C11.61345451 22.02310593 9.51206514 22.28963499 7.41015625 22.55078125 C7.08015625 23.87078125 6.75015625 25.19078125 6.41015625 26.55078125 C7.085625 26.74414062 7.76109375 26.9375 8.45703125 27.13671875 C9.79507813 27.52730469 9.79507813 27.52730469 11.16015625 27.92578125 C12.041875 28.18101562 12.92359375 28.43625 13.83203125 28.69921875 C16.17096197 29.47177465 18.24458187 30.38703801 20.41015625 31.55078125 C19.75015625 33.86078125 19.09015625 36.17078125 18.41015625 38.55078125 C13.91873428 39.98549175 10.79770405 38.49267699 6.58203125 36.8046875 C5.83302551 36.51472397 5.08401978 36.22476044 4.31231689 35.92601013 C1.92410071 34.99872522 -0.45778604 34.05625913 -2.83984375 33.11328125 C-4.45924168 32.48141185 -6.07902934 31.8505403 -7.69921875 31.22070312 C-11.6673733 29.67559912 -15.62992058 28.11685435 -19.58984375 26.55078125 C-18.41737292 17.70864174 -15.69587309 8.35442459 -9.390625 1.70703125 C-6.33894732 -0.25239737 -3.54851542 -0.27296272 0 0 Z " fill="#FAFDFE" transform="translate(147.58984375,349.44921875)"/>
<path d="M0 0 C1.72201293 0.4584703 3.44320601 0.92002044 5.1640625 1.3828125 C6.1226416 1.63949707 7.0812207 1.89618164 8.06884766 2.16064453 C15.19401555 4.20098496 21.22538977 6.14725198 26 12 C27.46650366 14.93300732 27.36440295 16.72037344 27 20 C23.43099274 27.28450363 23.43099274 27.28450363 20 29 C18.00039988 29.039992 15.99952758 29.04346799 14 29 C14.433125 30.68029297 14.433125 30.68029297 14.875 32.39453125 C15.25018691 33.86713989 15.62517665 35.33979878 16 36.8125 C16.19078125 37.55048828 16.3815625 38.28847656 16.578125 39.04882812 C17.35262914 42.10535341 18 44.83373478 18 48 C13.05 46.515 13.05 46.515 8 45 C7.690625 43.494375 7.38125 41.98875 7.0625 40.4375 C6.87558594 39.52871094 6.68867187 38.61992187 6.49609375 37.68359375 C6.08142314 35.44045432 5.82162525 33.26838402 5.625 31 C5.41875 30.01 5.2125 29.02 5 28 C3.01855552 26.78500536 3.01855552 26.78500536 1 26 C0.51787786 27.56159059 0.03944127 29.12431928 -0.4375 30.6875 C-0.70433594 31.55761719 -0.97117187 32.42773438 -1.24609375 33.32421875 C-1.96344529 35.87025921 -2.517541 38.4003423 -3 41 C-6.73487777 40.5020163 -8.81237635 40.12508244 -12 38 C-11.25444066 33.61937519 -9.9162149 29.4910715 -8.49609375 25.29296875 C-8.2533522 24.56757401 -8.01061066 23.84217926 -7.76051331 23.09480286 C-6.98900123 20.79140949 -6.21331556 18.48944701 -5.4375 16.1875 C-4.91183271 14.6205355 -4.38643908 13.05347915 -3.86132812 11.48632812 C-2.57738516 7.65648145 -1.28969875 3.82791206 0 0 Z " fill="#FAFDFE" transform="translate(621,119)"/>
<path d="M0 0 C-0.66 3.3 -1.32 6.6 -2 10 C-5.3 10.33 -8.6 10.66 -12 11 C-12.3304618 13.58361047 -12.61502007 16.15916555 -12.875 18.75 C-13.02195313 19.84441406 -13.02195313 19.84441406 -13.171875 20.9609375 C-13.45993841 23.40006026 -13.45993841 23.40006026 -13 27 C-10.16417201 29.58703579 -10.16417201 29.58703579 -7 31 C-7.66 34.3 -8.32 37.6 -9 41 C-11.93712181 39.5314391 -14.23276659 38.21424107 -16.8359375 36.3125 C-17.56441895 35.78293701 -18.29290039 35.25337402 -19.04345703 34.70776367 C-20.1975708 33.86242065 -20.1975708 33.86242065 -21.375 33 C-22.98414079 31.82910515 -24.59351889 30.65853636 -26.203125 29.48828125 C-27.00556641 28.90385254 -27.80800781 28.31942383 -28.63476562 27.71728516 C-32.11795498 25.1883056 -35.61966855 22.68565802 -39.125 20.1875 C-39.72231934 19.76146484 -40.31963867 19.33542969 -40.93505859 18.89648438 C-42.28972137 17.93054388 -43.64480571 16.96519465 -45 16 C-44.67 13.36 -44.34 10.72 -44 8 C-39.57548585 6.41398185 -35.24891136 5.39255305 -30.625 4.5625 C-29.2134824 4.30761968 -27.80202585 4.05240103 -26.390625 3.796875 C-25.66939453 3.66732422 -24.94816406 3.53777344 -24.20507812 3.40429688 C-22.00276808 3.00050752 -19.80595247 2.57444414 -17.609375 2.140625 C-16.89958496 2.00197021 -16.18979492 1.86331543 -15.45849609 1.72045898 C-13.47966631 1.33299419 -11.50153123 0.9419864 -9.5234375 0.55078125 C-6.27513582 0.04300904 -3.27963216 -0.10595735 0 0 Z " fill="#F8FCFE" transform="translate(161,402)"/>
<path d="M0 0 C2.64 0 5.28 0 8 0 C12.77525202 9.42736001 17.43097616 18.90837297 22 28.4375 C22.49282471 29.46238525 22.98564941 30.48727051 23.4934082 31.54321289 C23.9493335 32.49703857 24.40525879 33.45086426 24.875 34.43359375 C25.28492188 35.29009521 25.69484375 36.14659668 26.1171875 37.02905273 C27 39 27 39 27 40 C23.37 40 19.74 40 16 40 C13 34.25 13 34.25 13 32 C7.88034734 31.89811637 3.02587943 31.9490848 -2 33 C-4.6567496 35.60174443 -5.00729224 37.32114183 -6 41 C-8.97 41 -11.94 41 -15 41 C-13.54833298 32.94670438 -10.65641689 25.77809505 -7.5 18.25 C-7.00113281 17.04472656 -6.50226563 15.83945312 -5.98828125 14.59765625 C-5.06391849 12.36481216 -4.1365428 10.13321108 -3.20507812 7.90332031 C-2.11499567 5.27705198 -1.04931939 2.6427754 0 0 Z " fill="#FAFDFE" transform="translate(514,863)"/>
<path d="M0 0 C7.19069726 0.87344838 14.16541946 2.37727698 21.20727539 4.06005859 C22.91173828 4.45741211 22.91173828 4.45741211 24.65063477 4.86279297 C30.149322 6.15490431 35.60854323 7.50153825 41.01977539 9.12255859 C39.84101237 12.47749949 38.88659336 14.94481705 36.01977539 17.12255859 C33.78540039 17.09912109 33.78540039 17.09912109 31.26977539 16.74755859 C27.81872854 16.62086818 26.49429395 16.7388175 23.77368164 18.93896484 C20.00394361 23.28663653 20.00394361 23.28663653 19.21899414 28.73583984 C19.97818259 31.34316136 19.97818259 31.34316136 22.01977539 34.12255859 C21.87892995 38.34792194 18.89247696 40.33718715 16.01977539 43.12255859 C11.52244316 35.89918978 7.10099254 28.63426824 2.76977539 21.31005859 C2.35808105 20.6179126 1.94638672 19.9257666 1.5222168 19.21264648 C-1.18979113 14.60750545 -3.63530076 9.92534987 -5.98022461 5.12255859 C-3.3425402 0.20687402 -3.3425402 0.20687402 0 0 Z " fill="#F9FCFE" transform="translate(187.980224609375,262.87744140625)"/>
<path d="M0 0 C2 1 2 1 2.85375977 3.02539062 C3.13018311 3.89357422 3.40660645 4.76175781 3.69140625 5.65625 C3.99626953 6.59597656 4.30113281 7.53570312 4.61523438 8.50390625 C4.92783203 9.49261719 5.24042969 10.48132813 5.5625 11.5 C6.18624797 13.44873603 6.8124204 15.39669827 7.44140625 17.34375 C7.71670166 18.21193359 7.99199707 19.08011719 8.27563477 19.97460938 C8.82587271 21.96843474 8.82587271 21.96843474 10 23 C11.76129927 22.66058888 13.50685158 22.23901114 15.2421875 21.78515625 C16.30824219 21.51123047 17.37429687 21.23730469 18.47265625 20.95507812 C20.15681641 20.51325195 20.15681641 20.51325195 21.875 20.0625 C24.0799003 19.48769651 26.28559773 18.91593962 28.4921875 18.34765625 C29.47558105 18.08992432 30.45897461 17.83219238 31.47216797 17.56665039 C34 17 34 17 37 17 C36.38655243 18.68698082 35.70286303 20.34827188 35 22 C34.51144531 23.16660156 34.02289063 24.33320313 33.51953125 25.53515625 C32.18457515 27.84327776 31.3942675 28.82279009 28.94189453 29.92504883 C26.44617233 30.55166378 23.9825838 30.99696055 21.4375 31.375 C19.7277444 31.67379224 18.01810385 31.97324381 16.30859375 32.2734375 C15.55376709 32.39122559 14.79894043 32.50901367 14.02124023 32.63037109 C11.80643753 32.98651454 11.80643753 32.98651454 9 34 C15.93 37.96 15.93 37.96 23 42 C21 48 21 48 20 50 C16.208014 49.40945867 13.3636454 48.31313634 10.015625 46.453125 C9.07976562 45.9375 8.14390625 45.421875 7.1796875 44.890625 C5.72949219 44.07851563 5.72949219 44.07851563 4.25 43.25 C3.29867187 42.7240625 2.34734375 42.198125 1.3671875 41.65625 C-1.42555322 40.11067842 -4.21318337 38.55622233 -7 37 C-8.73413905 36.03603374 -10.46849377 35.0724553 -12.203125 34.109375 C-13.46875 33.40625 -14.734375 32.703125 -16 32 C-14.88243734 28.13151386 -13.97126708 25.71077243 -11 23 C-10.31292969 23.42152344 -9.62585938 23.84304688 -8.91796875 24.27734375 C-8.01691406 24.82519531 -7.11585938 25.37304688 -6.1875 25.9375 C-4.84751953 26.75541016 -4.84751953 26.75541016 -3.48046875 27.58984375 C-0.99296438 29.11009578 -0.99296438 29.11009578 2 30 C1.77747559 29.45585449 1.55495117 28.91170898 1.32568359 28.35107422 C0.32244329 25.86648278 -0.65135794 23.37133038 -1.625 20.875 C-1.975625 20.0190625 -2.32625 19.163125 -2.6875 18.28125 C-5.16694079 11.83470395 -5.16694079 11.83470395 -4.3125 7.5625 C-2.98022972 4.96140088 -1.58786625 2.45397512 0 0 Z " fill="#F9FCFE" transform="translate(163,296)"/>
<path d="M0 0 C6.36468753 4.15448831 12.52880592 8.52476844 18.625 13.0625 C24.05127065 17.08886217 29.48808897 21.09141966 35 25 C34 28 34 28 31.75 29.75 C28.48000456 31.23636156 27.34986417 31.17245246 24 30 C23.24332031 29.42894531 22.48664063 28.85789063 21.70703125 28.26953125 C19.00694165 26.61727481 19.00694165 26.61727481 16.10546875 28.01953125 C15.14253906 28.61121094 14.17960937 29.20289063 13.1875 29.8125 C12.21167969 30.39644531 11.23585938 30.98039062 10.23046875 31.58203125 C9.49441406 32.04996094 8.75835937 32.51789063 8 33 C8 36.3 8 39.6 8 43 C3.545 45.475 3.545 45.475 -1 48 C-1.69063835 43.00302841 -2.34910309 38.00226331 -3 33 C-3.13374023 31.98244629 -3.26748047 30.96489258 -3.40527344 29.91650391 C-3.84152736 26.57040667 -4.26558531 23.22293306 -4.6875 19.875 C-4.83098877 18.78453369 -4.97447754 17.69406738 -5.12231445 16.57055664 C-5.25081787 15.53406982 -5.37932129 14.49758301 -5.51171875 13.4296875 C-5.62990967 12.50397949 -5.74810059 11.57827148 -5.86987305 10.62451172 C-6.00781324 7.84241586 -5.80954689 5.66529507 -5 3 C-2.4375 1.1875 -2.4375 1.1875 0 0 Z " fill="#FAFCFE" transform="translate(309,154)"/>
<path d="M0 0 C2.64 0.33 5.28 0.66 8 1 C9.28440212 6.80182352 10.56608245 12.60423894 11.84521484 18.40722656 C12.28098496 20.38232782 12.71750585 22.35726358 13.15478516 24.33203125 C13.78223739 27.16623728 14.4070104 30.00102239 15.03125 32.8359375 C15.22811401 33.72243988 15.42497803 34.60894226 15.62780762 35.52230835 C15.80799438 36.34300812 15.98818115 37.16370789 16.17382812 38.00927734 C16.33371216 38.73319672 16.49359619 39.45711609 16.6583252 40.20297241 C17 42 17 42 17 44 C13.7 43.67 10.4 43.34 7 43 C6.34 40.03 5.68 37.06 5 34 C3.27327966 33.63409254 1.54346345 33.28277805 -0.1875 32.9375 C-1.15042969 32.74027344 -2.11335937 32.54304688 -3.10546875 32.33984375 C-6.08896237 31.98955503 -8.14483288 32.08793273 -11 33 C-12.84434349 35.46115547 -12.84434349 35.46115547 -14 38 C-17.3 37.67 -20.6 37.34 -24 37 C-23.04358476 33.17433904 -22.08934756 31.35833629 -19.90234375 28.18359375 C-19.2688501 27.25885254 -18.63535645 26.33411133 -17.98266602 25.38134766 C-17.30776123 24.40987793 -16.63285645 23.4384082 -15.9375 22.4375 C-15.2580835 21.45056152 -14.57866699 20.46362305 -13.87866211 19.44677734 C-9.35227599 12.89117234 -4.7754109 6.3773858 0 0 Z " fill="#FAFDFE" transform="translate(579,109)"/>
<path d="M0 0 C3.44955334 1.27800516 6.38090029 2.76118437 9.42578125 4.8203125 C10.61977539 5.62275391 10.61977539 5.62275391 11.83789062 6.44140625 C12.65451172 6.99699219 13.47113281 7.55257812 14.3125 8.125 C15.14845703 8.68832031 15.98441406 9.25164063 16.84570312 9.83203125 C18.89999052 11.21720789 20.95127038 12.60662219 23 14 C21.125 18.75 21.125 18.75 20 21 C15.72923425 20.45561155 13.23657456 19.00167081 9.8125 16.4375 C6.71687167 13.83359797 6.71687167 13.83359797 3 13 C2.34 14.65 1.68 16.3 1 18 C1.85464844 18.55429687 2.70929688 19.10859375 3.58984375 19.6796875 C4.70588973 20.41121343 5.8217664 21.14299771 6.9375 21.875 C8.03964844 22.59429688 9.14179688 23.31359375 10.27734375 24.0546875 C13 26 13 26 14 28 C12.02 30.97 12.02 30.97 10 34 C6.04093183 32.56691865 2.71281819 30.66858051 -0.8125 28.375 C-1.78832031 27.74335937 -2.76414062 27.11171875 -3.76953125 26.4609375 C-4.50558594 25.97882812 -5.24164063 25.49671875 -6 25 C-6.309375 25.78375 -6.61875 26.5675 -6.9375 27.375 C-8 30 -8 30 -9 32 C-7.92685547 32.38285156 -7.92685547 32.38285156 -6.83203125 32.7734375 C-3.79753382 34.0876888 -1.36811089 35.69496016 1.3125 37.625 C2.19550781 38.25664063 3.07851563 38.88828125 3.98828125 39.5390625 C4.98408203 40.26222656 4.98408203 40.26222656 6 41 C5.31911019 43.91985181 4.41898766 46.35122304 3 49 C-0.5693777 47.69150423 -3.52418566 46.12607526 -6.64453125 43.9609375 C-7.90620117 43.09082031 -7.90620117 43.09082031 -9.19335938 42.203125 C-10.05767578 41.59984375 -10.92199219 40.9965625 -11.8125 40.375 C-12.69615234 39.76398437 -13.57980469 39.15296875 -14.49023438 38.5234375 C-16.66322161 37.01996525 -18.83297876 35.51205266 -21 34 C-20.34984726 30.514417 -18.95236666 28.05363649 -17.05078125 25.078125 C-16.44943359 24.13453125 -15.84808594 23.1909375 -15.22851562 22.21875 C-14.59623047 21.2390625 -13.96394531 20.259375 -13.3125 19.25 C-12.69955078 18.28578125 -12.08660156 17.3215625 -11.45507812 16.328125 C-7.85347668 10.70611299 -4.10416321 5.26715186 0 0 Z " fill="#F9FCFE" transform="translate(296,797)"/>
<path d="M0 0 C14.82352941 12.66176471 14.82352941 12.66176471 20 18 C18.84826645 20.46800047 17.95216435 22.04783565 16 24 C11.93891248 23.80041664 9.93973606 21.24590088 7.25 18.4375 C6.45078125 17.61121094 5.6515625 16.78492188 4.828125 15.93359375 C4.22484375 15.29550781 3.6215625 14.65742188 3 14 C-0.16115776 15.36983503 -0.9927092 15.9890638 -3 19 C-2.42765625 19.24492187 -1.8553125 19.48984375 -1.265625 19.7421875 C1.38024402 21.21110099 3.14853139 22.95348244 5.25 25.125 C5.95640625 25.84945312 6.6628125 26.57390625 7.390625 27.3203125 C7.92171875 27.87460938 8.4528125 28.42890625 9 29 C7.60667426 32.36720387 6.0210714 33.9859524 3 36 C2.39671875 35.36191406 1.7934375 34.72382813 1.171875 34.06640625 C0.37265625 33.24011719 -0.4265625 32.41382813 -1.25 31.5625 C-2.03890625 30.73878906 -2.8278125 29.91507813 -3.640625 29.06640625 C-5.90263498 27.08527499 -7.03451779 26.21729827 -10 26 C-11.81299492 27.22954016 -11.81299492 27.22954016 -13 29 C-13 29.66 -13 30.32 -13 31 C-11.34839219 32.67080281 -11.34839219 32.67080281 -9.25 34.375 C-8.52425781 34.99761719 -7.79851563 35.62023437 -7.05078125 36.26171875 C-6.03564453 37.12216797 -6.03564453 37.12216797 -5 38 C-2.4375 40.1875 -2.4375 40.1875 -1 42 C-1.08226206 44.71464802 -1.76040966 45.73165881 -3.5625 47.75 C-4.036875 48.1625 -4.51125 48.575 -5 49 C-8.006818 47.66000502 -9.99762609 46.20154709 -12.25 43.8125 C-15.45033852 40.50847881 -18.81186702 37.47586269 -22.30078125 34.48046875 C-23.57729445 33.36828828 -24.80283014 32.19716986 -26 31 C-25.68135816 27.59191774 -24.33200568 26.01970031 -21.875 23.75 C-19.37433351 21.35563714 -17.00871371 18.93675434 -14.75 16.3125 C-9.9624677 10.7580861 -4.96912481 5.39145549 0 0 Z " fill="#FAFCFE" transform="translate(766,198)"/>
<path d="M0 0 C0 2.97 0 5.94 0 9 C-5.94 9.33 -11.88 9.66 -18 10 C-18 11.98 -18 13.96 -18 16 C-12.39 16 -6.78 16 -1 16 C-1 18.64 -1 21.28 -1 24 C-2 25 -2 25 -5.59765625 25.09765625 C-7.08596867 25.0909822 -8.57426432 25.07902183 -10.0625 25.0625 C-10.82111328 25.05798828 -11.57972656 25.05347656 -12.36132812 25.04882812 C-14.24091871 25.0370068 -16.12046899 25.01907078 -18 25 C-18 27.64 -18 30.28 -18 33 C-17.09121094 32.89171875 -17.09121094 32.89171875 -16.1640625 32.78125 C-10.08165405 32.1075063 -4.11697862 31.88286637 2 32 C2 34.64 2 37.28 2 40 C-0.77882385 41.38941192 -3.27645659 41.34703837 -6.375 41.5625 C-7.51710938 41.64628906 -8.65921875 41.73007813 -9.8359375 41.81640625 C-15.21889774 42.11761883 -20.61080171 42.03516879 -26 42 C-26.2891225 37.76850764 -26.57375568 33.53674254 -26.85449219 29.3046875 C-26.95030755 27.86938622 -27.04728291 26.43416183 -27.14550781 24.99902344 C-27.69287178 16.98963643 -28.12577223 9.03370108 -28 1 C-25.02097935 0.83028977 -22.04182744 0.66416249 -19.0625 0.5 C-18.23169922 0.45230469 -17.40089844 0.40460938 -16.54492188 0.35546875 C-11.02067678 0.05453711 -5.53245695 -0.04466161 0 0 Z " fill="#F8FCFE" transform="translate(499,102)"/>
<path d="M0 0 C7.61108225 0.00394971 13.30657122 0.25448376 19.4375 5.3125 C21.64487404 9.63527417 21.83345563 13.49687947 20.9375 18.25 C19.03454729 21.86706278 16.87706929 23.93681024 12.9375 25.25 C8.26782246 25.38590447 3.61012015 25.29286807 -1.0625 25.25 C-1.3925 30.2 -1.7225 35.15 -2.0625 40.25 C-5.0325 40.25 -8.0025 40.25 -11.0625 40.25 C-11.18772191 31.28225622 -10.84595674 22.43781826 -10.125 13.5 C-10.03798828 12.32695313 -9.95097656 11.15390625 -9.86132812 9.9453125 C-9.08515162 0.0332511 -9.08515162 0.0332511 0 0 Z " fill="#F9FCFE" transform="translate(529.0625,102.75)"/>
<path d="M0 0 C6.75 0.875 6.75 0.875 9 2 C6.28527809 15.53510286 6.28527809 15.53510286 4.25 20.9375 C2.84098165 24.91983082 2.84198834 27.86424405 4 32 C5.04374022 34.04451019 5.04374022 34.04451019 7 35 C10.40992006 35.50786043 12.20295048 35.58051005 15.02734375 33.5234375 C17.77021279 30.01473769 18.56885791 26.46418065 19.625 22.1875 C20.03375164 20.61846287 20.44260444 19.04945209 20.8515625 17.48046875 C21.04266602 16.72813965 21.23376953 15.97581055 21.43066406 15.20068359 C22.22870626 12.11596989 23.10960188 9.05921188 24 6 C28.455 6.99 28.455 6.99 33 8 C31.89696568 13.97476922 30.58921473 19.86924028 29.0625 25.75 C28.58490234 27.59851563 28.58490234 27.59851563 28.09765625 29.484375 C25.97958928 36.26821939 23.58073381 39.8441344 18 44 C14.2396485 45.88017575 10.09465512 45.51402233 6 45 C1.25536637 43.2934031 -2.13477102 40.92853842 -5.5625 37.25 C-9.07665963 29.30494345 -6.27841925 21.02865364 -4.0625 13.0625 C-3.78470703 12.02287109 -3.50691406 10.98324219 -3.22070312 9.91210938 C-1.18344457 2.36688914 -1.18344457 2.36688914 0 0 Z " fill="#F9FCFE" transform="translate(392,846)"/>
<path d="M0 0 C-0.48578543 3.12290635 -0.9986012 5.99580359 -2 9 C-3.27875 9.12375 -4.5575 9.2475 -5.875 9.375 C-9.34790936 9.69042399 -9.34790936 9.69042399 -12 12 C-12 13.32 -12 14.64 -12 16 C-10.33710938 16.07347656 -10.33710938 16.07347656 -8.640625 16.1484375 C-7.17705935 16.22349215 -5.71351888 16.29903881 -4.25 16.375 C-3.15558594 16.42140625 -3.15558594 16.42140625 -2.0390625 16.46875 C4.84771351 16.84439233 4.84771351 16.84439233 8 19 C11.13886598 22.69937776 11.54213107 26.10073949 11.33203125 30.79296875 C10.77270108 34.51086931 9.59548456 36.28092094 7 39 C0.69380506 43.27960806 -4.45251839 44.60866787 -12 44 C-13.22419163 40.06204091 -12.48320272 37.83887763 -11 34 C-9.7625 34.061875 -8.525 34.12375 -7.25 34.1875 C-4.39811111 34.18244346 -3.10444133 34.05222067 -0.5 32.75 C1.43386092 30.87797662 1.43386092 30.87797662 1 27 C-0.75376953 26.96132812 -0.75376953 26.96132812 -2.54296875 26.921875 C-4.09118226 26.86557633 -5.6393579 26.80822938 -7.1875 26.75 C-7.95642578 26.73582031 -8.72535156 26.72164062 -9.51757812 26.70703125 C-14.57069831 26.49015914 -17.3345188 25.78283182 -21 22 C-23.48475875 18.27286188 -23.75379974 15.31649533 -23 11 C-20.81368487 5.95622184 -17.22518777 2.87126028 -12.26953125 0.64453125 C-8.20833151 -0.50882152 -4.17704873 -0.30814294 0 0 Z " fill="#F8FCFE" transform="translate(366,130)"/>
<path d="M0 0 C0 2.97 0 5.94 0 9 C-0.928125 9.268125 -1.85625 9.53625 -2.8125 9.8125 C-6.52699097 11.15810214 -6.52699097 11.15810214 -9 14 C-9.25069913 16.62570704 -9.25069913 16.62570704 -9 19 C-7.081875 18.5359375 -7.081875 18.5359375 -5.125 18.0625 C-4.40570313 17.88847656 -3.68640625 17.71445313 -2.9453125 17.53515625 C-0.9414343 17.05153008 -0.9414343 17.05153008 1 16 C5.51523778 15.35075012 10.06189416 14.79374058 14.05859375 17.28125 C16.89097417 20.26985284 18.3549757 22.91999573 18.5625 27.0625 C17.66753252 33.32727238 15.92344727 36.50291053 10.9375 40.3125 C5.88019714 43.90064225 3.16125898 44.09937514 -3 44 C-2.67 41.03 -2.34 38.06 -2 35 C0.97 34.01 3.94 33.02 7 32 C7.33 30.02 7.66 28.04 8 26 C3.38943843 25.68322211 3.38943843 25.68322211 -0.92578125 26.98046875 C-4.75066768 28.86049767 -8.85528652 28.67066561 -13 28 C-16.34625024 25.47323961 -17.67977847 23.96066458 -19 20 C-19.36843296 15.50511786 -19.4512957 12.98107761 -17.5625 8.875 C-12.86934701 3.60951128 -7.44122175 -1.14480335 0 0 Z " fill="#F9FCFE" transform="translate(276,179)"/>
<path d="M0 0 C2.73452282 1.98252905 4.56311324 4.05616115 6.5 6.8125 C4.3125 8.875 4.3125 8.875 1.5 10.8125 C-2.79268293 10.51981707 -2.79268293 10.51981707 -4.5 8.8125 C-9.11544489 8.23080137 -12.50133167 8.1883323 -16.5 10.6875 C-20.28438786 14.7084121 -19.96270829 18.52767044 -19.8984375 23.875 C-19.49328799 26.86198465 -19.19218903 28.05414215 -17.0625 30.125 C-13.00456054 32.04718185 -10.94985556 32.01449043 -6.6484375 31.20703125 C-4.5 30.8125 -4.5 30.8125 -0.5 30.8125 C1.51623639 32.59527744 2.87344618 34.64376157 4.5 36.8125 C-1.50675521 40.32588512 -6.30170568 42.87891397 -13.5 41.8125 C-19.9857433 39.52573337 -24.73199771 36.58225351 -28.5 30.8125 C-31.18940098 25.17756462 -31.61750983 18.59998841 -29.84765625 12.6015625 C-24.41682012 0.4346249 -12.49555149 -4.23956211 0 0 Z " fill="#F8FCFE" transform="translate(473.5,861.1875)"/>
<path d="M0 0 C0.67590188 3.37321776 1.33905518 6.74882242 2 10.125 C2.19078125 11.07632812 2.3815625 12.02765625 2.578125 13.0078125 C3.49756891 17.73638116 4.2609763 22.15562735 4 27 C0.04 27.495 0.04 27.495 -4 28 C-4.50546036 25.91798472 -5.00416835 23.83432933 -5.5 21.75 C-5.7784375 20.58984375 -6.056875 19.4296875 -6.34375 18.234375 C-7 15 -7 15 -7 11 C-9.64 11.33 -12.28 11.66 -15 12 C-14.7834375 12.80824219 -14.566875 13.61648438 -14.34375 14.44921875 C-14.0653125 15.51785156 -13.786875 16.58648437 -13.5 17.6875 C-13.2215625 18.74324219 -12.943125 19.79898437 -12.65625 20.88671875 C-12.0608285 23.71142672 -11.87213508 26.12836708 -12 29 C-15.96 29.495 -15.96 29.495 -20 30 C-20.50588147 28.08487728 -21.00448391 26.16783078 -21.5 24.25 C-21.7784375 23.18265625 -22.056875 22.1153125 -22.34375 21.015625 C-23 18 -23 18 -23 14 C-23.81984375 14.2165625 -24.6396875 14.433125 -25.484375 14.65625 C-26.56203125 14.9346875 -27.6396875 15.213125 -28.75 15.5 C-29.81734375 15.7784375 -30.8846875 16.056875 -31.984375 16.34375 C-35 17 -35 17 -39 17 C-39.33 14.03 -39.66 11.06 -40 8 C-31.81095711 5.55550959 -23.57211918 3.89397884 -15.17504883 2.35839844 C-14.29228271 2.19629883 -13.4095166 2.03419922 -12.5 1.8671875 C-11.7059375 1.72394043 -10.911875 1.58069336 -10.09375 1.43310547 C-2.79990298 -0.07567305 -2.79990298 -0.07567305 0 0 Z " fill="#F9FCFE" transform="translate(896,408)"/>
<path d="M0 0 C4.53658884 4.28801708 7.53331033 9.22897975 10.8125 14.5 C11.42287109 15.45003906 12.03324219 16.40007812 12.66210938 17.37890625 C13.5196582 18.75369141 13.5196582 18.75369141 14.39453125 20.15625 C14.91893799 20.98962891 15.44334473 21.82300781 15.98364258 22.68164062 C17 25 17 25 16.85424805 27.22460938 C16 29 16 29 12.9375 30.25 C11.968125 30.4975 10.99875 30.745 10 31 C7.525 27.04 7.525 27.04 5 23 C0.10917787 25.29257287 -4.56510658 27.67056001 -9.0859375 30.62890625 C-9.79363281 31.08990723 -10.50132812 31.5509082 -11.23046875 32.02587891 C-12.65109296 32.96099379 -14.06280429 33.90980299 -15.46484375 34.87255859 C-17.4609375 36.18359375 -17.4609375 36.18359375 -21 38 C-24.48581695 37.21829686 -24.98031575 36.02952637 -27 33 C-27 32.01 -27 31.02 -27 30 C-24.61328125 28.19067383 -24.61328125 28.19067383 -21.3125 26.20703125 C-20.73540283 25.85613937 -20.15830566 25.5052475 -19.5637207 25.14372253 C-17.71516863 24.0229738 -15.85788803 22.9176892 -14 21.8125 C-12.74679241 21.0563377 -11.49417982 20.29918837 -10.2421875 19.54101562 C-7.16828552 17.68249863 -4.0863761 15.83774502 -1 14 C-2.65 10.7 -4.3 7.4 -6 4 C-4.02 2.68 -2.04 1.36 0 0 Z " fill="#F9FCFE" transform="translate(837,278)"/>
<path d="M0 0 C1.35439668 2.70879335 1.06501451 5.00933268 1 8 C-2.63 8.33 -6.26 8.66 -10 9 C-9.731875 10.464375 -9.46375 11.92875 -9.1875 13.4375 C-8.79158787 15.62498574 -8.39576697 17.81248799 -8 20 C-7.87157715 20.70125 -7.7431543 21.4025 -7.61083984 22.125 C-7.19551719 24.39523346 -6.78496081 26.66629277 -6.375 28.9375 C-6.17233521 30.03759399 -6.17233521 30.03759399 -5.96557617 31.15991211 C-5.36309229 34.52026114 -5 37.57202488 -5 41 C-7.95664519 42.4783226 -10.74229737 42.06032783 -14 42 C-15.82892905 35.38404797 -16.79012857 28.8067579 -17.625 22 C-17.7590625 20.93910156 -17.893125 19.87820313 -18.03125 18.78515625 C-18.35848959 16.1906138 -18.68129782 13.59560256 -19 11 C-19.74636719 11.16371094 -20.49273438 11.32742188 -21.26171875 11.49609375 C-24.54381541 12.10007445 -27.67010069 12.06529214 -31 12 C-31 9.36 -31 6.72 -31 4 C-27.33535447 3.3218963 -23.66801404 2.65961856 -20 2 C-18.45505859 1.71382812 -18.45505859 1.71382812 -16.87890625 1.421875 C-11.15409731 0.40088997 -5.81441862 -0.22363149 0 0 Z " fill="#F8FCFE" transform="translate(580,857)"/>
<path d="M0 0 C6.07208836 0.99162783 11.23079713 3.69511116 16.75 6.3125 C18.34908203 7.04243164 18.34908203 7.04243164 19.98046875 7.78710938 C20.99238281 8.26599609 22.00429688 8.74488281 23.046875 9.23828125 C23.97338867 9.67180908 24.89990234 10.10533691 25.85449219 10.55200195 C28 12 28 12 28.86816406 14.03198242 C29.03613732 16.53944994 28.28666013 17.88079508 27 20 C23.03564468 19.44683414 19.6837622 18.54379132 16 17 C15.61666504 17.81267334 15.23333008 18.62534668 14.83837891 19.46264648 C13.4157362 22.47105528 11.9876144 25.47673012 10.55566406 28.48071289 C9.93657543 29.78239059 9.31970188 31.08512416 8.70507812 32.38891602 C7.8221879 34.26078569 6.93144957 36.12873661 6.0390625 37.99609375 C5.23782959 39.68496704 5.23782959 39.68496704 4.42041016 41.40795898 C3 44 3 44 1 45 C-1.35981813 44.06421005 -3.69631264 43.06652192 -6 42 C-5.38600868 38.1608198 -4.23708711 35.07286923 -2.53125 31.5859375 C-2.04269531 30.57789063 -1.55414062 29.56984375 -1.05078125 28.53125 C-0.53902344 27.4896875 -0.02726563 26.448125 0.5 25.375 C1.51190816 23.30020593 2.52239152 21.22471617 3.53125 19.1484375 C3.98048828 18.23239746 4.42972656 17.31635742 4.89257812 16.37255859 C6.08492213 13.93640437 6.08492213 13.93640437 7 11 C6.071875 10.71125 5.14375 10.4225 4.1875 10.125 C1 9 1 9 -2 7 C-1.34 4.69 -0.68 2.38 0 0 Z " fill="#F9FCFE" transform="translate(664,135)"/>
<path d="M0 0 C3.29590048 2.73088897 4.92303076 4.85478255 5.5078125 9.18359375 C5.69801178 13.45039757 5.62036224 16.07045044 3.4375 19.8125 C-0.75161262 23.53615566 -4.12568478 24.25944147 -9.625 24.1328125 C-12.93916123 23.6475246 -14.58452532 22.24301784 -16.8125 19.8125 C-19.49575722 15.34040463 -19.6128123 10.89448312 -18.8125 5.8125 C-14.97980475 -1.54332666 -7.32118055 -3.09116512 0 0 Z " fill="#53C2EB" transform="translate(659.8125,843.1875)"/>
<path d="M0 0 C3.11886578 1.69095133 5.39018854 3.78037709 7 7 C7.51816286 11.79937735 7.71207367 15.73409126 5.3125 20 C0.89818971 23.81778187 -3.13814237 24.45331282 -8.84765625 24.3203125 C-12.89257033 23.71834707 -14.95647212 21.39137051 -17.3125 18.25 C-18.72000722 13.64361274 -18.65889456 9.56053976 -16.8125 5.1875 C-12.23473935 -0.33738354 -6.88952391 -1.21061922 0 0 Z " fill="#53C2EB" transform="translate(869,362)"/>
<path d="M0 0 C3.2138627 1.60693135 5.16978419 2.94336169 7.375 5.75 C8.72393433 10.60616359 8.8629708 14.44665256 6.4375 18.8125 C1.65696754 23.10272144 -2.72634905 24.16788643 -9 24 C-9.67138621 20.73011701 -10.33629263 17.45894951 -11 14.1875 C-11.19078125 13.25873047 -11.3815625 12.32996094 -11.578125 11.37304688 C-11.75859375 10.48037109 -11.9390625 9.58769531 -12.125 8.66796875 C-12.37636719 7.43469849 -12.37636719 7.43469849 -12.6328125 6.17651367 C-13 4 -13 4 -13 1 C-8.65160826 -0.44946391 -4.54437886 -0.51592482 0 0 Z " fill="#56C3EB" transform="translate(437,118)"/>
<path d="M0 0 C5.37403216 0.90174438 8.93967066 3.0083483 12.875 6.8125 C14.5542101 10.07763075 14.43721578 12.37735495 14 16 C11.76472071 20.30498234 9.58056023 23.23023809 5 25 C-0.4939332 24.82558942 -4.18083459 23.77102011 -9 21 C-7.50640515 16.15713185 -5.54966433 11.68649104 -3.375 7.125 C-2.88773437 6.09246094 -2.88773437 6.09246094 -2.390625 5.0390625 C-1.59676528 3.35794781 -0.79880442 1.67877079 0 0 Z " fill="#55C3EB" transform="translate(343,835)"/>
<path d="M0 0 C0.20157715 0.75095947 0.4031543 1.50191895 0.61083984 2.27563477 C1.53165118 5.70474465 2.45331813 9.133624 3.375 12.5625 C3.69210937 13.74392578 4.00921875 14.92535156 4.3359375 16.14257812 C6.21829346 23.16599149 6.21829346 23.16599149 8.21875 30.15625 C8.97672382 32.91527469 9.17239599 35.15546618 9 38 C6.03 38.66 3.06 39.32 0 40 C-1.10310123 35.73171116 -2.20578705 31.46331527 -3.30810547 27.19482422 C-3.68234316 25.74590225 -4.0566899 24.29700843 -4.43115234 22.84814453 C-4.97262518 20.75300563 -5.51369204 18.65776222 -6.0546875 16.5625 C-6.37937012 15.30566406 -6.70405273 14.04882812 -7.03857422 12.75390625 C-8.04108087 8.83959894 -9.02357832 4.92088394 -10 1 C-6.14742381 -0.87125129 -4.12048864 -0.99030231 0 0 Z " fill="#F8FCFE" transform="translate(607,851)"/>
<path d="M0 0 C2.92937654 1.81310142 5.43647949 3.87295899 7 7 C7.12272016 11.5406461 6.86358012 14.98402339 3.875 18.5 C0.41537793 20.30502021 -2.09373338 20.93024524 -6 21 C-8.84302741 19.79961065 -10.42521835 18.73900498 -12.3125 16.3125 C-13.34754666 12.83097941 -13.71228432 9.5543693 -13 6 C-9.07404115 1.14420879 -6.25795636 -0.72207189 0 0 Z " fill="#F9FCFE" transform="translate(889,484)"/>
<path d="M0 0 C5.57894737 3.15789474 5.57894737 3.15789474 7 6 C7.6469176 10.7040151 7.63833677 13.99101607 5.0625 18.0625 C0.92537707 20.67986349 -2.23141903 20.8984283 -7 20 C-10 18.5625 -10 18.5625 -12 16 C-13.04087777 12.91830008 -13.39730171 10.2343717 -13 7 C-9.99430808 1.31865291 -6.27237418 -0.6031129 0 0 Z " fill="#FAFDFE" transform="translate(130,482)"/>
<path d="M0 0 C4.70588235 0.70588235 4.70588235 0.70588235 6 2 C5.61577388 6.07279689 5.12055529 9.46574118 3 13 C-2.75 12.125 -2.75 12.125 -5 11 C-4.39373981 6.75617868 -3.09595976 3.09595976 0 0 Z " fill="#5EC5EC" transform="translate(143,359)"/>
<path d="M0 0 C8.75 2.75 8.75 2.75 11 5 C10.44444444 9.55555556 10.44444444 9.55555556 9 11 C4.78428287 11.28743526 1.81990452 10.79760213 -2 9 C-1.34 6.03 -0.68 3.06 0 0 Z " fill="#5AC4EC" transform="translate(627,129)"/>
<path d="M0 0 C7.42857143 -0.28571429 7.42857143 -0.28571429 11 2 C11.04254356 3.99954746 11.04080783 6.00041636 11 8 C10 9 10 9 7.71484375 9.09765625 C6.34005859 9.08025391 6.34005859 9.08025391 4.9375 9.0625 C4.01839844 9.05347656 3.09929688 9.04445313 2.15234375 9.03515625 C1.44207031 9.02355469 0.73179687 9.01195313 0 9 C0 6.03 0 3.06 0 0 Z " fill="#54C2EB" transform="translate(529,111)"/>
<path d="M0 0 C2.22825644 2.22825644 2.69239369 3.65761628 3.625 6.625 C3.88539063 7.44226563 4.14578125 8.25953125 4.4140625 9.1015625 C4.60742188 9.72804688 4.80078125 10.35453125 5 11 C0.545 11.495 0.545 11.495 -4 12 C-3.52494322 10.18641846 -3.04483958 8.37415821 -2.5625 6.5625 C-2.29566406 5.55316406 -2.02882813 4.54382813 -1.75390625 3.50390625 C-1 1 -1 1 0 0 Z " fill="#67C8ED" transform="translate(518,876)"/>
<path d="M0 0 C0.66 0 1.32 0 2 0 C2.33 3.96 2.66 7.92 3 12 C0.36 11.67 -2.28 11.34 -5 11 C-3.55049545 7.2089881 -1.84827434 3.6125362 0 0 Z " fill="#60C6EC" transform="translate(579,122)"/>
<path d="M0 0 C-0.33 2.64 -0.66 5.28 -1 8 C-5.10811428 6.55007731 -8.46855666 4.54592427 -12 2 C-12 1.67 -12 1.34 -12 1 C-7.95858806 0.36605303 -4.0934693 -0.12404452 0 0 Z " fill="#5EC5EC" transform="translate(141,415)"/>
<path d="M0 0 C1.45922693 0.11409593 2.91740598 0.24165544 4.375 0.375 C5.59316406 0.47941406 5.59316406 0.47941406 6.8359375 0.5859375 C9 1 9 1 11 3 C9.02 5.97 9.02 5.97 7 9 C4 8 4 8 2.83203125 6.15234375 C2.49558594 5.42144531 2.15914062 4.69054687 1.8125 3.9375 C1.46832031 3.20402344 1.12414062 2.47054688 0.76953125 1.71484375 C0.51558594 1.14894531 0.26164063 0.58304687 0 0 Z " fill="#5CC5EC" transform="translate(195,274)"/>
<path d="M0 0 C6.42857143 4.14285714 6.42857143 4.14285714 9 7 C3.25 11 3.25 11 1 11 C-0.20272819 8.59454362 -0.10071472 7.05003047 -0.0625 4.375 C-0.05347656 3.55773437 -0.04445313 2.74046875 -0.03515625 1.8984375 C-0.02355469 1.27195313 -0.01195312 0.64546875 0 0 Z " fill="#5CC5EC" transform="translate(313,168)"/>
<path d="M0 0 C1.60031344 3.20062687 0.03173691 5.72271806 -1 9 C-1.99 9 -2.98 9 -4 9 C-4 5.00095031 -2.27413033 3.19799578 0 0 Z " fill="#67C7ED" transform="translate(711,173)"/>
</svg>
